<svg xmlns="http://www.w3.org/2000/svg" width="540" height="458" viewBox="0 0 540 458" fill="none"><g clip-path="url(#clip0_41_42)"><path d="M455.631 434.668C455.631 443.223 448.676 450.158 440.093 450.158H62.079C53.4982 450.158 46.5402 443.223 46.5402 434.668V181.74C46.5402 173.185 53.4953 166.25 62.079 166.25H440.097C448.676 166.25 455.636 173.185 455.636 181.74L455.631 434.668Z" fill="#D0D2D3"></path><path d="M438.185 168.312H63.9897C55.4969 168.312 48.6121 175.197 48.6121 183.69V434.78C48.6121 443.273 55.4969 450.158 63.9897 450.158H438.185C446.678 450.158 453.562 443.273 453.562 434.78V183.69C453.562 175.197 446.678 168.312 438.185 168.312Z" fill="#060808"></path><path d="M445.701 433.497H56.475C50.6508 433.497 48.6121 430.503 48.6121 425.837V434.78C48.6121 436.8 49.0098 438.799 49.7826 440.665C50.5554 442.531 51.6881 444.226 53.1161 445.654C54.544 447.082 56.2393 448.215 58.105 448.987C59.9707 449.76 61.9703 450.158 63.9897 450.158H438.185C440.204 450.158 442.204 449.76 444.069 448.987C445.935 448.215 447.63 447.082 449.058 445.654C450.486 444.226 451.619 442.531 452.392 440.665C453.165 438.799 453.562 436.8 453.562 434.78V425.837C453.562 429.49 451.524 433.497 445.701 433.497Z" fill="#111215"></path><path d="M403.494 435.877H98.6801C98.2503 435.877 97.9018 436.225 97.9018 436.655V444.529C97.9018 444.959 98.2503 445.308 98.6801 445.308H403.494C403.924 445.308 404.273 444.959 404.273 444.529V436.655C404.273 436.225 403.924 435.877 403.494 435.877Z" fill="#14181B"></path><path d="M440.982 186.448H61.1928V422.939H440.982V186.448Z" fill="#F1F5FE"></path><path d="M0 449.279C0 452.952 15.8122 457.835 23.6248 457.835H478.551C486.364 457.835 502.176 452.952 502.176 449.279H0Z" fill="url(#paint0_linear_41_42)"></path><path d="M502.176 449.918C502.176 450.41 501.825 450.81 501.395 450.81H0.781257C0.349623 450.81 0 450.41 0 449.918V441.371C0 440.881 0.349623 440.481 0.781257 440.481H501.395C501.826 440.481 502.176 440.881 502.176 441.371V449.918Z" fill="url(#paint1_linear_41_42)"></path><path d="M217.851 447.465H284.323C285.24 447.465 286.148 447.284 286.995 446.933C287.843 446.582 288.612 446.067 289.261 445.419C289.909 444.77 290.424 444.001 290.774 443.153C291.125 442.306 291.306 441.398 291.305 440.481H210.868C210.868 441.398 211.048 442.306 211.399 443.153C211.75 444.001 212.265 444.771 212.913 445.419C213.562 446.068 214.331 446.582 215.179 446.933C216.026 447.284 216.934 447.465 217.851 447.465Z" fill="url(#paint2_linear_41_42)"></path><path d="M412.834 43.2252L200.116 0.912842L140.296 301.647L353.014 343.959L412.834 43.2252Z" fill="#F9F9F9"></path><path d="M238.275 41.3125L215.492 36.7808L214.112 43.7207L236.895 48.2525L238.275 41.3125Z" fill="#E0E0E0"></path><path d="M266.055 46.8389L240.982 41.8516L239.602 48.7915L264.675 53.7789L266.055 46.8389Z" fill="#E0E0E0"></path><path d="M294.319 52.4603L268.556 47.3357L267.175 54.2757L292.938 59.4003L294.319 52.4603Z" fill="#E0E0E0"></path><path d="M245.129 64.1153L211.391 57.4043L210.01 64.3442L243.749 71.0553L245.129 64.1153Z" fill="#E0E0E0"></path><path d="M290.216 73.0825L248.546 64.7939L247.166 71.7339L288.835 80.0225L290.216 73.0825Z" fill="#E0E0E0"></path><path d="M292.146 63.384L213.32 47.7046L211.939 54.6445L290.765 70.324L292.146 63.384Z" fill="#E0E0E0"></path><path d="M223.486 71.128L209.224 68.291L207.843 75.231L222.106 78.068L223.486 71.128Z" fill="#E0E0E0"></path><path d="M264.076 79.2018L226.094 71.6467L224.714 78.5867L262.696 86.1418L264.076 79.2018Z" fill="#E0E0E0"></path><path d="M288.05 83.9708L262.287 78.8462L260.907 85.7861L286.67 90.9107L288.05 83.9708Z" fill="#E0E0E0"></path><path d="M227.904 93.4466L205.121 88.9148L203.741 95.8548L226.523 100.387L227.904 93.4466Z" fill="#E0E0E0"></path><path d="M283.947 104.593L230.612 93.9841L229.231 100.924L282.566 111.533L283.947 104.593Z" fill="#E0E0E0"></path><path d="M260.112 89.7704L207.05 79.2158L205.67 86.1558L258.731 96.7104L260.112 89.7704Z" fill="#E0E0E0"></path><path d="M285.603 94.8414L261.903 90.1272L260.523 97.0672L284.223 101.781L285.603 94.8414Z" fill="#E0E0E0"></path><path d="M345.831 123.562C362.292 123.562 375.637 110.217 375.637 93.756C375.637 77.2947 362.292 63.9502 345.831 63.9502C329.37 63.9502 316.025 77.2947 316.025 93.756C316.025 110.217 329.37 123.562 345.831 123.562Z" fill="#E0E0E0"></path><path d="M368.91 98.3483C368.062 102.61 366.049 106.554 363.097 109.742C360.144 112.93 356.367 115.239 352.183 116.412C347.999 117.585 343.571 117.576 339.392 116.388C335.212 115.199 331.443 112.876 328.503 109.677C325.562 106.478 323.565 102.527 322.732 98.2617C321.899 93.9969 322.263 89.5847 323.784 85.5141C325.305 81.4436 327.923 77.8736 331.349 75.1998C334.774 72.526 338.873 70.8527 343.191 70.3655C344.296 70.2409 345.409 70.1957 346.52 70.2302C347.831 70.2703 349.137 70.4195 350.424 70.6763C350.599 70.7108 350.773 70.7468 350.946 70.7856C356.948 72.1222 362.188 75.7548 365.545 80.906C368.903 86.0572 370.11 92.3178 368.91 98.3483Z" fill="#EE5253"></path><path d="M365.817 81.3336L345.831 93.756L350.424 70.6765C350.599 70.711 350.773 70.747 350.946 70.7859C354.003 71.4633 356.893 72.7455 359.447 74.5569C362.001 76.3684 364.167 78.6725 365.817 81.3336Z" fill="#05BCE3"></path><path d="M368.91 98.3488C368.128 102.295 366.345 105.975 363.734 109.036C361.122 112.097 357.769 114.437 353.995 115.831L345.831 93.7562L360.639 75.4607C363.97 78.1616 366.501 81.7206 367.959 85.754C369.416 89.7874 369.745 94.1422 368.91 98.3488Z" fill="#3E6FFF"></path><path d="M345.831 93.7559L325.478 81.9277C327.327 78.7543 329.89 76.0562 332.965 74.0482C336.041 72.0403 339.542 70.7778 343.191 70.3613C344.296 70.2367 345.408 70.1915 346.52 70.2261L345.831 93.7559Z" fill="#0FAB82"></path><path d="M350.946 70.7856L345.831 93.7557L343.191 70.3655C344.296 70.2409 345.409 70.1957 346.52 70.2302C347.831 70.2703 349.137 70.4195 350.424 70.6763C350.599 70.705 350.775 70.7468 350.946 70.7856Z" fill="#5E4A9D"></path><path d="M372.227 149.987L199.798 115.689L187.081 179.622L359.51 213.92L372.227 149.987Z" fill="#EFEFEF"></path><path d="M285.188 134.119L199.042 116.539L186.005 180.42L272.151 198.001L285.188 134.119Z" fill="#EAEAE9"></path><path d="M371.287 151.713L198.996 116.552L196.619 128.2L368.91 163.362L371.287 151.713Z" fill="#C8C8C8"></path><path d="M355.771 232.712L269.556 215.563L252.407 301.777L338.622 318.927L355.771 232.712Z" fill="#EFEFEF"></path><path d="M355.771 232.712L269.556 215.563L267.237 227.221L353.452 244.37L355.771 232.712Z" fill="#C8C8C8"></path><path d="M181.791 246.508L173.942 244.947L167.031 279.693L174.879 281.255L181.791 246.508Z" fill="#23B899"></path><path d="M194.316 227.591L186.467 226.03L175.459 281.37L183.308 282.931L194.316 227.591Z" fill="#3B97D2"></path><path d="M204.006 222.926L196.157 221.365L183.888 283.047L191.737 284.608L204.006 222.926Z" fill="#F29C1F"></path><path d="M213.33 219.963L205.481 218.402L192.29 284.718L200.139 286.279L213.33 219.963Z" fill="#945BA4"></path><path d="M225.908 291.441L233.757 293.002L242.789 247.594L234.94 246.033L225.908 291.441Z" fill="#34495E"></path><path d="M217.483 289.764L225.332 291.326L236.212 236.627L228.363 235.066L217.483 289.764Z" fill="#5E4A9D"></path><path d="M209.056 288.086L216.905 289.647L231.161 217.979L223.312 216.417L209.056 288.086Z" fill="#F16B6C"></path><path d="M200.655 286.416L208.504 287.977L224.489 207.612L216.641 206.05L200.655 286.416Z" fill="#D15627"></path><path d="M233.236 296.656L166.306 283.343L166.123 284.264L233.053 297.577L233.236 296.656Z" fill="#4BBC99"></path><path d="M314.644 240.698L271.995 232.215L271.128 236.572L313.777 245.056L314.644 240.698Z" fill="#E2E2E2"></path><path d="M313.282 247.546L270.634 239.063L269.767 243.421L312.416 251.904L313.282 247.546Z" fill="#E2E2E2"></path><path d="M311.92 254.393L269.271 245.91L268.404 250.267L311.053 258.751L311.92 254.393Z" fill="#E2E2E2"></path><path d="M310.56 261.24L267.911 252.757L267.044 257.115L309.693 265.598L310.56 261.24Z" fill="#E2E2E2"></path><path d="M309.198 268.089L266.549 259.605L265.683 263.963L308.331 272.446L309.198 268.089Z" fill="#E2E2E2"></path><path d="M307.836 274.934L265.187 266.451L264.32 270.808L306.969 279.292L307.836 274.934Z" fill="#E2E2E2"></path><path d="M306.474 281.781L263.825 273.298L262.959 277.655L305.607 286.139L306.474 281.781Z" fill="#E2E2E2"></path><path d="M303.48 289.904L260.865 281.208L259.977 285.562L302.591 294.258L303.48 289.904Z" fill="#E2E2E2"></path><path d="M303.75 295.476L261.101 286.993L260.234 291.351L302.883 299.834L303.75 295.476Z" fill="#E2E2E2"></path><path d="M302.387 302.323L259.738 293.84L258.871 298.197L301.52 306.681L302.387 302.323Z" fill="#E2E2E2"></path><path d="M275.81 147.815L201.489 133.031L200.622 137.389L274.944 152.173L275.81 147.815Z" fill="#D6D6D5"></path><path d="M274.448 154.66L200.126 139.877L199.259 144.234L273.581 159.018L274.448 154.66Z" fill="#D6D6D5"></path><path d="M273.086 161.507L198.765 146.724L197.898 151.081L272.22 165.865L273.086 161.507Z" fill="#D6D6D5"></path><path d="M271.723 168.355L197.402 153.572L196.535 157.929L270.857 172.713L271.723 168.355Z" fill="#D6D6D5"></path><path d="M270.362 175.202L196.04 160.419L195.174 164.777L269.495 179.56L270.362 175.202Z" fill="#D6D6D5"></path><path d="M268.999 182.049L194.678 167.266L193.811 171.623L268.132 186.407L268.999 182.049Z" fill="#D6D6D5"></path><path d="M330.912 158.923L288.263 150.439L287.396 154.797L330.045 163.28L330.912 158.923Z" fill="#E0E0E0"></path><path d="M329.549 165.77L286.9 157.287L286.033 161.644L328.682 170.128L329.549 165.77Z" fill="#E0E0E0"></path><path d="M328.187 172.618L285.539 164.135L284.672 168.492L327.321 176.976L328.187 172.618Z" fill="#E0E0E0"></path><path d="M326.824 179.465L284.176 170.982L283.309 175.34L325.958 183.823L326.824 179.465Z" fill="#E0E0E0"></path><path d="M363.871 165.478L337.87 160.306L337.003 164.664L363.005 169.836L363.871 165.478Z" fill="#E0E0E0"></path><path d="M362.509 172.325L336.507 167.153L335.64 171.511L361.642 176.683L362.509 172.325Z" fill="#E0E0E0"></path><path d="M361.147 179.173L335.146 174.001L334.279 178.359L360.28 183.531L361.147 179.173Z" fill="#E0E0E0"></path><path d="M359.784 186.02L333.783 180.848L332.916 185.206L358.918 190.378L359.784 186.02Z" fill="#E0E0E0"></path><path d="M325.463 186.311L282.815 177.827L281.948 182.185L324.597 190.668L325.463 186.311Z" fill="#E0E0E0"></path><path d="M324.1 193.159L281.452 184.675L280.585 189.033L323.234 197.516L324.1 193.159Z" fill="#E0E0E0"></path><path d="M274.319 80.9175L63.0095 133.76L136.673 428.33L347.983 375.488L274.319 80.9175Z" fill="#F0F0F0"></path><path d="M244.939 177.331L104.736 212.392L104.857 212.872L245.059 177.812L244.939 177.331Z" fill="#E6E7E8"></path><path d="M242.257 166.611L102.055 201.671L102.175 202.151L242.377 167.091L242.257 166.611Z" fill="#E6E7E8"></path><path d="M239.577 155.889L99.3743 190.95L99.4944 191.43L239.697 156.37L239.577 155.889Z" fill="#E6E7E8"></path><path d="M236.896 145.17L96.6939 180.23L96.814 180.711L237.016 145.65L236.896 145.17Z" fill="#E6E7E8"></path><path d="M234.215 134.449L94.0122 169.51L94.1322 169.99L234.335 134.93L234.215 134.449Z" fill="#E6E7E8"></path><path d="M108.327 203.066L105.824 203.692L110.548 222.583L113.051 221.957L108.327 203.066Z" fill="#3E6FFF"></path><path d="M112.37 205.434L109.867 206.06L113.796 221.771L116.299 221.145L112.37 205.434Z" fill="#3E6FFF"></path><path d="M114.241 198.823L111.738 199.449L117.113 220.942L119.616 220.316L114.241 198.823Z" fill="#3E6FFF"></path><path d="M126.51 209.423L124.007 210.049L126.165 218.678L128.668 218.052L126.51 209.423Z" fill="#3E6FFF"></path><path d="M124.484 187.533L121.981 188.159L129.41 217.867L131.913 217.241L124.484 187.533Z" fill="#3E6FFF"></path><path d="M128.773 190.588L126.27 191.214L132.728 217.039L135.231 216.413L128.773 190.588Z" fill="#3E6FFF"></path><path d="M140.251 198.03L137.749 198.656L141.779 214.773L144.282 214.147L140.251 198.03Z" fill="#3E6FFF"></path><path d="M139.467 181.1L136.965 181.726L145.025 213.96L147.528 213.335L139.467 181.1Z" fill="#3E6FFF"></path><path d="M139.645 167.719L137.143 168.345L148.342 213.132L150.845 212.506L139.645 167.719Z" fill="#3E6FFF"></path><path d="M150.835 174.002L148.333 174.627L157.395 210.868L159.898 210.242L150.835 174.002Z" fill="#3E6FFF"></path><path d="M155.714 179.721L153.212 180.347L160.641 210.055L163.144 209.429L155.714 179.721Z" fill="#3E6FFF"></path><path d="M165.096 203.148L162.594 203.773L163.958 209.228L166.46 208.602L165.096 203.148Z" fill="#3E6FFF"></path><path d="M170.591 186.653L168.088 187.279L173.011 206.964L175.514 206.338L170.591 186.653Z" fill="#3E6FFF"></path><path d="M168.739 165.459L166.236 166.084L176.256 206.152L178.759 205.526L168.739 165.459Z" fill="#3E6FFF"></path><path d="M176.209 181.237L173.706 181.863L179.573 205.323L182.075 204.698L176.209 181.237Z" fill="#3E6FFF"></path><path d="M182.791 169.095L180.288 169.721L188.625 203.058L191.127 202.433L182.791 169.095Z" fill="#3E6FFF"></path><path d="M188.506 178.161L186.003 178.787L191.87 202.248L194.373 201.622L188.506 178.161Z" fill="#3E6FFF"></path><path d="M190.262 171.083L187.76 171.709L195.189 201.417L197.691 200.791L190.262 171.083Z" fill="#3E6FFF"></path><path d="M202.214 180.416L199.711 181.042L204.24 199.152L206.743 198.526L202.214 180.416Z" fill="#3E6FFF"></path><path d="M200.93 161.493L198.428 162.119L207.486 198.342L209.988 197.716L200.93 161.493Z" fill="#3E6FFF"></path><path d="M200.592 146.05L198.09 146.676L210.802 197.512L213.305 196.886L200.592 146.05Z" fill="#3E6FFF"></path><path d="M212.866 156.671L210.364 157.296L219.855 195.25L222.357 194.624L212.866 156.671Z" fill="#3E6FFF"></path><path d="M222.915 183.065L220.412 183.691L223.099 194.438L225.602 193.812L222.915 183.065Z" fill="#3E6FFF"></path><path d="M226.949 185.08L228.923 192.976L226.421 193.601L217.65 158.534L220.153 157.908L226.949 185.08Z" fill="#3E6FFF"></path><path d="M229.912 158.483L227.409 159.109L235.47 191.344L237.973 190.718L229.912 158.483Z" fill="#3E6FFF"></path><path d="M234.76 164.082L232.258 164.708L238.716 190.533L241.218 189.907L234.76 164.082Z" fill="#3E6FFF"></path><path d="M232.689 141.701L230.186 142.327L242.033 189.702L244.536 189.076L232.689 141.701Z" fill="#3E6FFF"></path><path d="M247.619 188.051L107.417 223.111L107.537 223.591L247.739 188.531L247.619 188.051Z" fill="#231F20"></path><path d="M91.5133 169.063L89.0148 169.688L89.6396 172.186L92.138 171.562L91.5133 169.063Z" fill="#E6E7E8"></path><path d="M94.1937 179.783L91.6952 180.407L92.32 182.906L94.8185 182.281L94.1937 179.783Z" fill="#E6E7E8"></path><path d="M96.874 190.504L94.3755 191.129L95.0003 193.627L97.4988 193.002L96.874 190.504Z" fill="#E6E7E8"></path><path d="M99.5558 201.224L97.0573 201.849L97.6821 204.348L100.181 203.723L99.5558 201.224Z" fill="#E6E7E8"></path><path d="M102.236 211.944L99.7377 212.569L100.363 215.067L102.861 214.442L102.236 211.944Z" fill="#E6E7E8"></path><path d="M104.918 222.665L102.419 223.29L103.044 225.788L105.543 225.163L104.918 222.665Z" fill="#E6E7E8"></path><path d="M120.377 223.363L111.24 225.648L111.908 228.318L121.045 226.033L120.377 223.363Z" fill="#E6E7E8"></path><path d="M135.992 219.456L126.855 221.741L127.523 224.411L136.66 222.126L135.992 219.456Z" fill="#E6E7E8"></path><path d="M151.607 215.553L142.47 217.838L143.137 220.508L152.274 218.223L151.607 215.553Z" fill="#E6E7E8"></path><path d="M167.221 211.649L158.084 213.934L158.752 216.604L167.888 214.319L167.221 211.649Z" fill="#E6E7E8"></path><path d="M182.836 207.744L173.699 210.029L174.367 212.699L183.504 210.414L182.836 207.744Z" fill="#E6E7E8"></path><path d="M198.452 203.838L189.315 206.123L189.982 208.793L199.119 206.508L198.452 203.838Z" fill="#E6E7E8"></path><path d="M214.067 199.933L204.93 202.218L205.598 204.888L214.735 202.603L214.067 199.933Z" fill="#E6E7E8"></path><path d="M229.681 196.029L220.545 198.314L221.212 200.984L230.349 198.699L229.681 196.029Z" fill="#E6E7E8"></path><path d="M245.297 192.124L236.16 194.409L236.828 197.079L245.965 194.795L245.297 192.124Z" fill="#E6E7E8"></path><path d="M246.158 143.365L241.885 144.433L242.954 148.706L247.226 147.637L246.158 143.365Z" fill="#3E6FFF"></path><path d="M248.26 151.773L243.988 152.841L245.056 157.115L249.329 156.047L248.26 151.773Z" fill="#3E6FFF"></path><path d="M250.362 160.181L246.09 161.249L247.159 165.523L251.431 164.455L250.362 160.181Z" fill="#3E6FFF"></path><path d="M262.635 140.403L250.071 143.545L250.595 145.638L263.158 142.497L262.635 140.403Z" fill="#E6E7E8"></path><path d="M264.735 148.811L252.172 151.953L252.695 154.047L265.259 150.905L264.735 148.811Z" fill="#E6E7E8"></path><path d="M266.839 157.217L254.275 160.359L254.799 162.453L267.362 159.311L266.839 157.217Z" fill="#E6E7E8"></path><path d="M136.733 261.876L116.718 266.883C117.469 269.789 118.8 272.514 120.631 274.892C122.462 277.271 124.756 279.254 127.374 280.723L137.332 262.653C137.06 262.459 136.851 262.188 136.733 261.876Z" fill="#2059FF"></path><path d="M138.828 259.659C139.225 259.784 139.561 260.051 139.774 260.409C139.986 260.767 140.059 261.19 139.979 261.598L159.637 267.876C160.559 264.89 160.845 261.744 160.474 258.641C160.104 255.538 159.087 252.547 157.488 249.862C155.89 247.176 153.745 244.857 151.193 243.053C148.642 241.248 145.74 240 142.675 239.388L138.828 259.659Z" fill="#8BC53F"></path><path d="M116.622 266.496L136.637 261.488C136.6 261.202 136.637 260.912 136.745 260.644L118.616 250.8C116.049 255.611 115.339 261.197 116.622 266.496Z" fill="#3E6FFF"></path><path d="M136.934 260.298C137.168 259.965 137.513 259.729 137.907 259.631C138.08 259.588 138.259 259.572 138.436 259.584L142.287 239.309C137.699 238.483 132.967 239.114 128.756 241.112C124.544 243.111 121.063 246.377 118.801 250.454L136.934 260.298Z" fill="#1E4FDF"></path><path d="M139.861 261.977C139.679 262.374 139.351 262.686 138.944 262.847C138.537 263.008 138.084 263.006 137.68 262.84L127.722 280.911C130.594 282.461 133.77 283.362 137.028 283.551C140.286 283.74 143.545 283.212 146.577 282.005C149.608 280.798 152.338 278.94 154.574 276.564C156.811 274.187 158.498 271.349 159.519 268.25L139.861 261.977Z" fill="#3E6FFF"></path><path d="M166.387 231.256L161.561 232.462L162.886 237.761L167.712 236.554L166.387 231.256Z" fill="#A87C4F"></path><path d="M169.095 242.08L164.269 243.287L165.594 248.586L170.42 247.379L169.095 242.08Z" fill="#8BC53F"></path><path d="M171.799 252.904L166.974 254.111L168.299 259.409L173.124 258.203L171.799 252.904Z" fill="#EB008B"></path><path d="M174.507 263.731L169.682 264.937L171.007 270.236L175.832 269.029L174.507 263.731Z" fill="#F6921E"></path><path d="M177.213 274.555L172.388 275.761L173.713 281.06L178.538 279.853L177.213 274.555Z" fill="#704C9E"></path><path d="M193.186 224.555L173.624 229.447L174.949 234.745L194.511 229.853L193.186 224.555Z" fill="#D0D2D3"></path><path d="M195.892 235.378L176.33 240.27L177.655 245.569L197.217 240.677L195.892 235.378Z" fill="#D0D2D3"></path><path d="M198.599 246.204L179.037 251.096L180.362 256.394L199.924 251.502L198.599 246.204Z" fill="#D0D2D3"></path><path d="M201.306 257.029L181.744 261.921L183.069 267.219L202.631 262.327L201.306 257.029Z" fill="#D0D2D3"></path><path d="M204.014 267.853L184.452 272.745L185.777 278.044L205.339 273.152L204.014 267.853Z" fill="#D0D2D3"></path><path d="M278.064 253.828C288.16 243.731 288.16 227.362 278.064 217.265C267.968 207.169 251.598 207.169 241.502 217.265C231.405 227.362 231.405 243.731 241.502 253.828C251.598 263.924 267.968 263.924 278.064 253.828Z" fill="white"></path><path d="M276.674 252.438C286.003 243.109 286.003 227.984 276.674 218.655C267.345 209.326 252.22 209.326 242.891 218.655C233.562 227.984 233.562 243.109 242.891 252.438C252.22 261.767 267.345 261.767 276.674 252.438Z" fill="#E85C49"></path><path d="M283.629 237.066L235.937 234.027C235.579 240.326 237.727 246.511 241.911 251.232C246.096 255.953 251.978 258.828 258.274 259.229C264.57 259.63 270.77 257.525 275.52 253.373C280.27 249.221 283.185 243.359 283.629 237.066Z" fill="#00B2B7"></path><path d="M253.988 212.372C249.747 213.433 245.879 215.638 242.805 218.745C239.73 221.852 237.567 225.743 236.551 229.994C235.535 234.246 235.704 238.694 237.041 242.856C238.377 247.018 240.83 250.733 244.132 253.597L259.783 235.546L253.988 212.372Z" fill="#F2A246"></path><path d="M267.297 243.061C271.447 238.911 271.447 232.182 267.297 228.032C263.147 223.882 256.418 223.882 252.268 228.032C248.118 232.182 248.118 238.911 252.268 243.061C256.418 247.211 263.147 247.211 267.297 243.061Z" fill="white"></path><path d="M265.386 241.15C268.481 238.055 268.481 233.038 265.386 229.943C262.292 226.848 257.274 226.848 254.179 229.943C251.084 233.038 251.084 238.055 254.179 241.15C257.274 244.245 262.292 244.245 265.386 241.15Z" fill="#0BA14A"></path><path d="M267.469 233.624C266.959 231.585 265.659 229.832 263.857 228.751C262.054 227.67 259.896 227.349 257.857 227.859L261.703 243.235C262.712 242.983 263.662 242.534 264.499 241.914C265.335 241.295 266.041 240.517 266.577 239.624C267.112 238.732 267.466 237.742 267.62 236.713C267.773 235.683 267.722 234.634 267.469 233.624Z" fill="#5CAF65"></path><path d="M292.563 269.035L127.148 310.4L150.508 403.814L315.923 362.449L292.563 269.035Z" fill="#3E6FFF"></path><path d="M309.499 336.757L144.084 378.122L150.508 403.812L315.923 362.447L309.499 336.757Z" fill="#3E6FFF"></path><path d="M151.911 359.89C151.911 359.89 155.253 357.435 156.227 354.135C157.201 350.834 156.692 347.372 161.133 345.716C165.575 344.06 164.653 334.18 169.56 332.953C174.468 331.726 180.361 344.032 185.269 342.804C190.176 341.577 191.012 337.337 196.419 335.993C199.297 335.274 205.815 340.655 209.612 339.705C212.996 338.859 214.328 331.334 219.922 329.934C225.516 328.534 228.435 335.177 233.003 334.035C237.571 332.892 237.275 318.762 242.013 317.578C246.751 316.394 249.459 322.902 256.401 321.175C263.343 319.449 258.769 307.639 265.199 306.03C268.626 305.167 273.967 309.167 275.863 309.312C277.759 309.458 277.413 308.679 279.49 308.937C283.519 309.437 288.642 321.093 295.146 324.071L151.911 359.89Z" fill="#B0C536"></path><path d="M151.911 359.89C151.911 359.89 155.292 358.117 156.58 355.541C157.867 352.964 158.171 350.313 161.428 349.498C166.216 348.301 169.68 351.954 173.779 349.798C175.649 348.817 182.745 351.359 186.152 350.48C190.89 349.259 190.637 332.533 194.845 331.481C199.054 330.43 203.872 335.395 208.642 334.202C213.411 333.009 213.821 323.814 218.125 322.738C222.428 321.662 228.842 331.832 233.051 330.781C237.259 329.729 235.209 317.348 239.327 314.157C241.121 312.767 241.937 313.131 242.711 312.491C245.551 310.141 247.251 301.145 250.687 300.286C256.088 298.935 263.734 320.572 268.295 319.433C271.316 318.679 275.8 313.084 279.661 312.12C283.523 311.156 286.644 320.257 295.147 324.07L151.911 359.89Z" fill="#F05D61"></path><path opacity="0.1" d="M279.653 312.119C275.795 313.083 271.308 318.679 268.286 319.433C266.35 319.916 263.858 316.296 261.218 312.072C260.563 315.869 260.37 320.178 256.389 321.174C249.453 322.909 246.749 316.394 242.001 317.577C237.253 318.759 237.561 332.891 232.992 334.033C228.422 335.176 225.51 328.534 219.91 329.933C214.311 331.331 212.984 338.853 209.6 339.704C205.803 340.653 199.293 335.269 196.408 335.992C193.999 336.593 192.499 337.767 191.14 338.991C189.926 344.003 188.85 349.782 186.138 350.477C182.735 351.356 175.635 348.814 173.764 349.795C169.665 351.953 166.202 348.297 161.414 349.495C158.156 350.31 157.853 352.962 156.565 355.537C155.277 358.113 151.896 359.887 151.896 359.887L295.124 324.061C286.635 320.257 283.51 311.154 279.653 312.119Z" fill="#231F20"></path><path d="M151.911 359.89C156.302 358.353 158.374 355.358 160.382 354.579C162.391 353.801 163.427 354.094 165.176 353.381C166.926 352.667 167.766 349.43 173.984 347.875C177.678 346.951 181.406 350.883 187.758 349.295C190.611 348.575 190.697 339.564 196.462 338.123C202.228 336.681 204.839 337.956 209.288 336.842C213.736 335.728 210.59 312.84 215.346 311.65C220.103 310.461 228.559 329.132 232.18 328.225C235.802 327.319 237.853 323.227 243.97 321.697C250.086 320.168 252.7 332.385 258.626 331.041C264.553 329.697 263.923 325.243 269.315 323.962C274.708 322.682 277.785 326.455 280.969 325.726C284.153 324.997 283.512 324.058 285.779 323.492C288.047 322.925 295.131 324.067 295.131 324.067L151.911 359.89Z" fill="#3E6FFF"></path><path opacity="0.3" d="M285.791 323.499C283.523 324.066 284.171 325.005 280.981 325.733C277.791 326.461 274.713 322.69 269.327 323.969C263.94 325.248 264.566 329.703 258.638 331.048C252.71 332.393 250.097 320.175 243.981 321.705C240.043 322.69 237.794 324.736 235.721 326.309C235.249 328.611 234.544 330.412 233.052 330.785C228.844 331.837 222.425 321.667 218.126 322.742C214.905 323.548 213.865 328.913 211.539 332.054C211.139 334.665 210.493 336.547 209.294 336.846C204.845 337.96 202.233 336.685 196.468 338.127C190.703 339.569 190.617 348.586 187.764 349.299C187.296 349.909 186.767 350.326 186.154 350.485C182.751 351.364 175.651 348.821 173.78 349.803C172.054 350.713 170.429 350.587 168.776 350.234C166.969 351.59 166.241 352.958 165.179 353.391C163.43 354.11 162.394 353.813 160.385 354.59C158.377 355.366 156.305 358.363 151.914 359.9L295.141 324.074C295.141 324.074 288.058 322.923 285.791 323.499Z" fill="#231F20"></path><path d="M148.261 368.235L136.345 320.591L138.024 320.665L308.297 328.211L148.261 368.235ZM139.59 323.243L150.083 365.196L291.009 329.946L139.59 323.243Z" fill="#231F20"></path><path d="M270.286 353.614C269.06 353.921 267.951 354.585 267.102 355.522C266.252 356.458 265.7 357.626 265.514 358.877C265.328 360.128 265.517 361.405 266.058 362.549C266.598 363.692 267.465 364.65 268.549 365.3C269.634 365.95 270.887 366.265 272.15 366.203C273.413 366.142 274.629 365.707 275.645 364.954C276.661 364.201 277.431 363.164 277.858 361.973C278.284 360.783 278.348 359.492 278.041 358.266C277.838 357.451 277.475 356.684 276.975 356.01C276.475 355.335 275.847 354.766 275.127 354.334C274.407 353.902 273.609 353.616 272.778 353.492C271.948 353.369 271.101 353.41 270.286 353.614ZM272.663 363.12C272.01 363.283 271.323 363.249 270.69 363.022C270.056 362.795 269.504 362.385 269.103 361.844C268.702 361.303 268.471 360.655 268.438 359.983C268.406 359.31 268.573 358.643 268.919 358.066C269.266 357.489 269.776 357.027 270.384 356.739C270.993 356.452 271.673 356.351 272.339 356.45C273.005 356.549 273.626 356.843 274.125 357.296C274.624 357.748 274.977 358.338 275.141 358.991C275.249 359.425 275.271 359.876 275.206 360.318C275.14 360.76 274.988 361.185 274.758 361.569C274.527 361.952 274.224 362.287 273.865 362.553C273.505 362.819 273.097 363.012 272.663 363.12Z" fill="#B0C536"></path><path d="M265.635 361.369C265.845 362.217 266.228 363.012 266.76 363.706L269.134 361.887C268.791 361.439 268.565 360.913 268.476 360.357C268.387 359.8 268.437 359.23 268.623 358.697C268.808 358.165 269.123 357.687 269.538 357.306C269.954 356.925 270.458 356.653 271.004 356.515L270.285 353.614C268.64 354.026 267.226 355.074 266.354 356.529C265.482 357.983 265.223 359.724 265.635 361.369Z" fill="#E0DD6F"></path><path d="M217.905 366.714C216.678 367.021 215.57 367.685 214.72 368.622C213.871 369.558 213.318 370.726 213.132 371.977C212.946 373.228 213.135 374.506 213.676 375.649C214.216 376.792 215.083 377.75 216.168 378.4C217.252 379.05 218.505 379.365 219.768 379.303C221.031 379.242 222.248 378.807 223.264 378.054C224.28 377.301 225.05 376.264 225.476 375.073C225.903 373.883 225.966 372.592 225.66 371.366C225.248 369.721 224.2 368.306 222.745 367.434C221.291 366.562 219.55 366.303 217.905 366.714ZM220.283 376.22C219.63 376.384 218.943 376.35 218.309 376.123C217.675 375.896 217.123 375.486 216.722 374.945C216.321 374.404 216.09 373.756 216.057 373.084C216.024 372.412 216.191 371.744 216.537 371.167C216.884 370.59 217.393 370.128 218.002 369.84C218.611 369.552 219.291 369.452 219.957 369.551C220.623 369.649 221.244 369.944 221.743 370.396C222.242 370.848 222.596 371.438 222.759 372.091C222.867 372.525 222.889 372.976 222.823 373.419C222.757 373.861 222.604 374.286 222.374 374.67C222.143 375.053 221.839 375.388 221.48 375.654C221.12 375.92 220.711 376.112 220.277 376.22H220.283Z" fill="#F05D61"></path><path d="M225.723 374.193L222.794 373.597C222.672 374.194 222.393 374.747 221.985 375.199C221.577 375.652 221.055 375.986 220.474 376.168C219.893 376.35 219.274 376.373 218.681 376.234C218.087 376.096 217.543 375.8 217.102 375.379C216.662 374.958 216.343 374.427 216.178 373.841C216.013 373.255 216.008 372.635 216.164 372.046C216.32 371.457 216.631 370.921 217.065 370.494C217.499 370.066 218.039 369.762 218.63 369.615L217.91 366.714C216.801 366.992 215.787 367.562 214.974 368.365C214.16 369.167 213.576 370.174 213.283 371.279C212.991 372.384 212.999 373.547 213.309 374.648C213.619 375.748 214.218 376.745 215.043 377.536C215.869 378.326 216.892 378.881 218.005 379.142C219.118 379.402 220.281 379.36 221.372 379.019C222.463 378.678 223.443 378.051 224.209 377.202C224.975 376.354 225.5 375.316 225.729 374.196L225.723 374.193Z" fill="#F9B086"></path><path d="M165.294 379.872C164.067 380.179 162.959 380.842 162.109 381.779C161.26 382.716 160.707 383.883 160.521 385.134C160.335 386.385 160.524 387.663 161.064 388.806C161.604 389.95 162.471 390.907 163.556 391.558C164.64 392.209 165.893 392.523 167.156 392.461C168.419 392.4 169.636 391.965 170.652 391.212C171.668 390.459 172.438 389.422 172.864 388.231C173.291 387.041 173.355 385.75 173.048 384.524C172.636 382.879 171.588 381.464 170.134 380.592C168.68 379.72 166.939 379.461 165.294 379.872ZM167.671 389.378C167.018 389.541 166.331 389.507 165.697 389.28C165.064 389.052 164.512 388.642 164.111 388.101C163.71 387.56 163.479 386.913 163.446 386.24C163.414 385.568 163.581 384.901 163.927 384.324C164.274 383.747 164.783 383.285 165.392 382.997C166.001 382.71 166.681 382.609 167.347 382.708C168.013 382.807 168.634 383.101 169.133 383.553C169.632 384.006 169.985 384.596 170.149 385.249C170.257 385.682 170.279 386.133 170.214 386.576C170.148 387.018 169.995 387.443 169.765 387.827C169.535 388.21 169.232 388.545 168.873 388.811C168.513 389.077 168.105 389.27 167.671 389.378Z" fill="#3E6FFF"></path><path d="M160.643 387.626C160.888 388.605 161.36 389.511 162.023 390.272C162.685 391.033 163.517 391.626 164.453 392.004C165.388 392.381 166.399 392.532 167.404 392.444C168.408 392.357 169.378 392.032 170.234 391.498L168.651 388.963C168.348 389.151 168.018 389.291 167.673 389.377C166.797 389.596 165.87 389.459 165.095 388.994C164.321 388.53 163.763 387.777 163.544 386.901C163.325 386.025 163.463 385.098 163.927 384.323C164.392 383.549 165.145 382.991 166.021 382.772L165.301 379.871C164.486 380.074 163.719 380.436 163.043 380.936C162.368 381.435 161.797 382.063 161.365 382.783C160.932 383.504 160.646 384.302 160.522 385.133C160.398 385.964 160.439 386.811 160.643 387.626Z" fill="#2059FF"></path><path d="M245.96 361.924L226.691 366.742L227.565 370.236L246.834 365.417L245.96 361.924Z" fill="#808184"></path><path d="M239.131 368.609L227.863 371.427L228.749 374.969L240.017 372.151L239.131 368.609Z" fill="#808184"></path><path d="M298.343 348.825L279.074 353.643L279.947 357.137L299.216 352.319L298.343 348.825Z" fill="#808184"></path><path d="M291.513 355.51L280.245 358.327L281.131 361.87L292.399 359.052L291.513 355.51Z" fill="#808184"></path><path d="M193.35 375.081L174.081 379.899L174.954 383.393L194.223 378.575L193.35 375.081Z" fill="white"></path><path d="M186.519 381.765L175.251 384.582L176.137 388.125L187.405 385.307L186.519 381.765Z" fill="white"></path><path d="M366.689 51.5881H134.132V380.37H366.689V51.5881Z" fill="white"></path><path d="M194.765 269.081C215.176 269.081 231.723 252.534 231.723 232.123C231.723 211.712 215.176 195.165 194.765 195.165C174.353 195.165 157.807 211.712 157.807 232.123C157.807 252.534 174.353 269.081 194.765 269.081Z" fill="#E0E0E0"></path><path d="M194.765 264.237C212.501 264.237 226.878 249.859 226.878 232.123C226.878 214.387 212.501 200.01 194.765 200.01C177.029 200.01 162.651 214.387 162.651 232.123C162.651 249.859 177.029 264.237 194.765 264.237Z" fill="white"></path><path d="M223.945 232.123C223.946 235.956 223.193 239.751 221.727 243.292C220.261 246.833 218.112 250.05 215.402 252.76C212.692 255.47 209.474 257.62 205.933 259.085C202.392 260.551 198.597 261.305 194.765 261.303C178.65 261.303 165.585 248.239 165.585 232.123C165.581 228.29 166.332 224.494 167.797 220.951C169.262 217.409 171.411 214.191 174.122 211.48C176.832 208.77 180.051 206.62 183.593 205.156C187.135 203.691 190.932 202.939 194.765 202.943C194.986 202.943 195.206 202.943 195.427 202.95C203.049 203.123 210.301 206.272 215.631 211.725C220.961 217.177 223.945 224.499 223.945 232.123Z" fill="#3E6FFF"></path><path d="M216.066 212.179L194.772 232.123V202.943C194.994 202.943 195.214 202.943 195.434 202.95C199.316 203.035 203.141 203.895 206.686 205.48C210.23 207.065 213.422 209.342 216.073 212.179H216.066Z" fill="#0736BF"></path><path d="M223.945 232.123C223.947 237.112 222.67 242.019 220.235 246.373C217.8 250.727 214.288 254.384 210.036 256.994L194.765 232.123L208.345 206.29C213.051 208.768 216.991 212.483 219.74 217.036C222.489 221.588 223.943 226.805 223.945 232.123Z" fill="#3E6FFF"></path><path d="M194.765 232.123L167.15 222.669C168.85 217.695 171.862 213.274 175.869 209.872C179.875 206.47 184.727 204.215 189.91 203.344L194.765 232.123Z" fill="#2059FF"></path><path d="M195.427 202.95L194.765 232.123L185.89 204.316C187.204 203.897 188.546 203.573 189.906 203.345C191.51 203.077 193.134 202.942 194.76 202.943C194.986 202.943 195.206 202.946 195.427 202.95Z" fill="#1E4FDF"></path><path d="M346.317 287.047H157.807V356.943H346.317V287.047Z" fill="#EFEFEF"></path><path d="M252.063 287.047H157.807V356.943H252.063V287.047Z" fill="#EAEAE9"></path><path d="M346.317 287.047H157.807V299.792H346.317V287.047Z" fill="#C8C8C8"></path><path d="M244.466 304.93H163.214V309.695H244.466V304.93Z" fill="#D6D6D5"></path><path d="M244.466 312.416H163.214V317.181H244.466V312.416Z" fill="#D6D6D5"></path><path d="M244.466 319.902H163.214V324.667H244.466V319.902Z" fill="#D6D6D5"></path><path d="M244.466 327.386H163.214V332.151H244.466V327.386Z" fill="#D6D6D5"></path><path d="M244.466 334.872H163.214V339.638H244.466V334.872Z" fill="#D6D6D5"></path><path d="M244.466 342.358H163.214V347.123H244.466V342.358Z" fill="#D6D6D5"></path><path d="M304.736 305.087H258.111V309.852H304.736V305.087Z" fill="#E0E0E0"></path><path d="M304.736 312.572H258.111V317.338H304.736V312.572Z" fill="#E0E0E0"></path><path d="M304.736 320.057H258.111V324.822H304.736V320.057Z" fill="#E0E0E0"></path><path d="M304.736 327.543H258.111V332.308H304.736V327.543Z" fill="#E0E0E0"></path><path d="M340.769 305.087H312.343V309.852H340.769V305.087Z" fill="#E0E0E0"></path><path d="M340.769 312.572H312.343V317.338H340.769V312.572Z" fill="#E0E0E0"></path><path d="M340.769 320.057H312.343V324.822H340.769V320.057Z" fill="#E0E0E0"></path><path d="M340.769 327.543H312.343V332.308H340.769V327.543Z" fill="#E0E0E0"></path><path d="M304.736 335.029H258.111V339.794H304.736V335.029Z" fill="#E0E0E0"></path><path d="M304.736 342.515H258.111V347.28H304.736V342.515Z" fill="#E0E0E0"></path><path d="M266.474 194.638H250.411V269.082H266.474V194.638Z" fill="#2059FF"></path><path d="M266.474 236.674H250.411V269.081H266.474V236.674Z" fill="#3E6FFF"></path><path d="M266.474 257.368H250.411V269.081H266.474V257.368Z" fill="#3E6FFF"></path><path d="M286.158 194.638H270.095V269.082H286.158V194.638Z" fill="#2059FF"></path><path d="M286.158 240.274H270.095V269.082H286.158V240.274Z" fill="#3E6FFF"></path><path d="M286.158 245.579H270.095V269.081H286.158V245.579Z" fill="#3E6FFF"></path><path d="M305.841 194.638H289.779V269.082H305.841V194.638Z" fill="#2059FF"></path><path d="M305.841 211.465H289.779V269.083H305.841V211.465Z" fill="#3E6FFF"></path><path d="M305.841 253.02H289.779V269.082H305.841V253.02Z" fill="#3E6FFF"></path><path d="M325.525 194.638H309.463V269.082H325.525V194.638Z" fill="#2059FF"></path><path d="M325.525 222.076H309.463V269.083H325.525V222.076Z" fill="#3E6FFF"></path><path d="M325.525 231.86H309.463V269.081H325.525V231.86Z" fill="#3E6FFF"></path><path d="M345.209 194.638H329.147V269.082H345.209V194.638Z" fill="#2059FF"></path><path d="M345.209 243.729H329.147V269.082H345.209V243.729Z" fill="#3E6FFF"></path><path d="M345.209 251.814H329.147V269.083H345.209V251.814Z" fill="#3E6FFF"></path><path d="M158.143 121.979L180.958 86.9517L205.586 116.055L241.36 94.3197L273.185 98.167L297.81 71.5869L323.9 95.7181L345.209 82.7778V139.441H157.807L158.143 121.979Z" fill="#0041FF"></path><path d="M158.437 132.277L180.958 112.435L205.182 133.85L239.56 120.83L273.139 115.106L298.435 91.344L323.51 123.12L345.209 104.421V138.811L157.807 140.073L158.437 132.277Z" fill="#3E6FFF"></path><path d="M283.94 149.041H232.556V156.629H283.94V149.041Z" fill="#E0E0E0"></path><path d="M314.31 149.041H286.898V156.629H314.31V149.041Z" fill="#E0E0E0"></path><path d="M345.209 149.041H317.042V156.629H345.209V149.041Z" fill="#E0E0E0"></path><path d="M295.918 171.588H257.68V179.176H295.918V171.588Z" fill="#E0E0E0"></path><path d="M345.209 171.588H298.435V179.176H345.209V171.588Z" fill="#E0E0E0"></path><path d="M345.208 160.984H292.869V168.572H345.208V160.984Z" fill="#E0E0E0"></path><path d="M289.779 160.984H245.985V168.572H289.779V160.984Z" fill="#E0E0E0"></path><path d="M173.4 149.041H157.807V156.629H173.4V149.041Z" fill="#E0E0E0"></path><path d="M217.774 149.041H176.249V156.629H217.774V149.041Z" fill="#E0E0E0"></path><path d="M230.354 149.041H215.817V156.629H230.354V149.041Z" fill="#E0E0E0"></path><path d="M182.715 171.588H157.807V179.176H182.715V171.588Z" fill="#E0E0E0"></path><path d="M255.14 171.588H185.673V179.176H255.14V171.588Z" fill="#E0E0E0"></path><path d="M215.817 160.984H157.807V168.572H215.817V160.984Z" fill="#E0E0E0"></path><path d="M243.683 160.984H217.774V168.572H243.683V160.984Z" fill="#E0E0E0"></path><path d="M159.069 86.094H157.807V140.073H159.069V86.094Z" fill="black"></path><path d="M159.069 138.811V140.073H345.209V138.811H159.069Z" fill="black"></path><path d="M468.792 234.317L456.494 246.615L476.655 266.775L488.953 254.477L468.792 234.317Z" fill="#231F20"></path><path d="M529.071 316.433C527.057 318.447 523.801 318.479 521.814 316.492L497.825 292.503C495.838 290.516 495.864 287.267 497.884 285.247L507.279 275.853C509.293 273.839 512.549 273.809 514.538 275.796L538.525 299.785C540.514 301.771 540.488 305.02 538.466 307.04L529.071 316.433Z" fill="#231F20"></path><path d="M483.77 245.101L467.072 261.834L520.97 315.619L537.668 298.886L483.77 245.101Z" fill="#2059FF"></path><path d="M483.768 245.086L475.233 253.639L529.131 307.424L537.666 298.871L483.768 245.086Z" fill="#2059FF"></path><path d="M428.011 118.287C387.757 110.19 348.56 136.257 340.463 176.51C332.365 216.763 358.432 255.961 398.686 264.058C438.94 272.156 478.137 246.092 486.234 205.835C494.332 165.578 468.265 126.386 428.011 118.287ZM400.165 256.709C363.971 249.427 340.532 214.185 347.812 177.989C355.092 141.794 390.341 118.356 426.534 125.638C462.726 132.919 486.165 168.162 478.885 204.358C471.605 240.553 436.359 263.991 400.165 256.709Z" fill="#231F20"></path><path opacity="0.3" d="M460.617 238.443C486.723 212.337 486.723 170.011 460.617 143.905C434.511 117.799 392.185 117.799 366.079 143.905C339.973 170.011 339.973 212.337 366.079 238.443C392.185 264.549 434.511 264.549 460.617 238.443Z" fill="#F1F5FE"></path><path opacity="0.4" d="M400.7 133.043C403.378 136.662 396.672 146.168 385.707 154.277C374.742 162.386 363.693 166.026 361.019 162.407C358.344 158.789 365.047 149.283 376.011 141.174C386.974 133.065 398.014 129.425 400.7 133.043Z" fill="white"></path></g><defs><linearGradient id="paint0_linear_41_42" x1="251.087" y1="449.279" x2="251.087" y2="457.835" gradientUnits="userSpaceOnUse"><stop stop-color="#8AA2A7"></stop><stop offset="0.3" stop-color="#889FA4"></stop><stop offset="0.48" stop-color="#80979C"></stop><stop offset="0.63" stop-color="#73898E"></stop><stop offset="0.76" stop-color="#61757A"></stop><stop offset="0.88" stop-color="#4A5A5F"></stop><stop offset="0.99" stop-color="#2D3A3F"></stop><stop offset="1" stop-color="#2A373C"></stop></linearGradient><linearGradient id="paint1_linear_41_42" x1="0" y1="445.644" x2="502.176" y2="445.644" gradientUnits="userSpaceOnUse"><stop stop-color="#E4E7E9"></stop><stop offset="0.01" stop-color="white"></stop><stop offset="0.03" stop-color="#8AA0A6"></stop><stop offset="0.05" stop-color="#9DB0B5"></stop><stop offset="0.08" stop-color="#B8C6C9"></stop><stop offset="0.12" stop-color="#CED9DA"></stop><stop offset="0.16" stop-color="#DFE7E7"></stop><stop offset="0.22" stop-color="#EAF1F0"></stop><stop offset="0.29" stop-color="#F1F6F6"></stop><stop offset="0.5" stop-color="#F3F8F7"></stop><stop offset="0.71" stop-color="#F1F6F6"></stop><stop offset="0.79" stop-color="#EAF1F0"></stop><stop offset="0.84" stop-color="#DFE7E8"></stop><stop offset="0.88" stop-color="#CED9DB"></stop><stop offset="0.92" stop-color="#B8C7CA"></stop><stop offset="0.96" stop-color="#9DB1B6"></stop><stop offset="0.97" stop-color="#8EA4AB"></stop><stop offset="0.99" stop-color="#DDE5E7"></stop><stop offset="1" stop-color="#5E7078"></stop></linearGradient><linearGradient id="paint2_linear_41_42" x1="210.868" y1="443.973" x2="291.307" y2="443.973" gradientUnits="userSpaceOnUse"><stop stop-color="#8AA0A6"></stop><stop offset="0.01" stop-color="#90A5AA"></stop><stop offset="0.04" stop-color="#ABB9BD"></stop><stop offset="0.08" stop-color="#C1CACD"></stop><stop offset="0.13" stop-color="#D2D7D9"></stop><stop offset="0.19" stop-color="#DDE0E2"></stop><stop offset="0.27" stop-color="#E4E6E7"></stop><stop offset="0.5" stop-color="#E6E7E8"></stop><stop offset="0.73" stop-color="#E4E6E7"></stop><stop offset="0.81" stop-color="#DDE0E2"></stop><stop offset="0.87" stop-color="#D2D7DA"></stop><stop offset="0.92" stop-color="#C1CBCE"></stop><stop offset="0.96" stop-color="#ABBABF"></stop><stop offset="1" stop-color="#8EA4AB"></stop></linearGradient><clipPath id="clip0_41_42"><rect width="540" height="458" fill="white"></rect></clipPath></defs></svg>