<svg xmlns="http://www.w3.org/2000/svg" width="117" height="117" viewBox="0 0 117 117" fill="none"><g clip-path="url(#clip0_40_120)"><path fill-rule="evenodd" clip-rule="evenodd" d="M59.7891 76.0947C59.7325 75.9956 59.6563 75.8314 59.7923 75.7606C59.9283 75.6899 59.9981 75.6143 60.0791 75.5009C60.1601 75.3874 60.1665 75.3973 60.3302 75.3433C60.4938 75.2893 60.5989 75.3388 60.6247 75.2147C60.6504 75.0906 60.6919 75.0434 60.7912 74.9231C60.8835 74.8067 60.9661 74.7164 61.0336 74.5801C61.0934 74.446 61.1262 74.2833 61.1008 74.1792C61.0754 74.075 61.0365 73.9811 61.1214 73.949C61.2143 73.9168 61.2683 73.9249 61.3464 74.0255C61.4246 74.1261 61.5007 74.312 61.4107 74.3923C61.3207 74.4727 61.3053 74.4888 61.3355 74.6122C61.3657 74.7357 61.3963 74.8955 61.4104 74.953C61.4246 75.0106 61.3783 75.2803 61.1555 75.36C60.9253 75.4394 60.8243 75.4054 60.8018 75.434C60.7793 75.4626 60.7812 75.5799 60.7054 75.659C60.6295 75.7381 60.5819 75.7127 60.5607 75.659C60.5285 75.6063 60.4417 75.5333 60.4729 75.5947C60.5041 75.6561 60.4851 75.7114 60.4128 75.7783C60.3282 75.8426 60.289 76.0127 60.2286 75.931C60.1681 75.8494 60.1103 75.7912 60.1691 75.7532C60.2279 75.7153 60.1836 75.6793 60.0939 75.7246C60.0151 75.7648 59.9206 75.7889 59.9871 75.8468C60.0563 75.9002 60.081 76.0021 60.0804 76.0985C60.0717 76.195 60.0768 76.2988 59.9302 76.3236C59.7836 76.3483 59.8267 76.2782 59.8354 76.2152C59.8441 76.1522 59.8155 76.1374 59.7891 76.0947Z" fill="#6E798D"></path><path fill-rule="evenodd" clip-rule="evenodd" d="M61.1133 73.7015C61.0934 73.6851 61.1946 73.6208 61.1946 73.6208C61.2505 73.6376 61.3083 73.6471 61.3666 73.6491C61.4445 73.6562 61.5274 73.6456 61.546 73.561C61.5685 73.471 61.546 73.4414 61.6746 73.4099C61.8032 73.3784 61.9026 73.3546 61.8354 73.2868C61.7682 73.2189 61.8145 73.1019 61.6187 73.173C61.4142 73.244 61.4769 73.2694 61.3435 73.1672C61.2101 73.0649 61.1107 72.8884 61.0497 72.9527C60.9815 73.017 61.0149 73.0575 61.0995 73.1566C61.1763 73.2575 61.2056 73.344 61.1712 73.4015C61.1249 73.4597 61.1876 73.4681 61.1175 73.5109C61.0423 73.5504 61.021 73.534 60.9712 73.6054C60.9214 73.6767 60.9108 73.7372 60.9423 73.7661C60.9808 73.7918 61.0406 73.8243 61.103 73.7983C61.1654 73.7722 61.1519 73.7259 61.1133 73.7015Z" fill="#6E798D"></path><path fill-rule="evenodd" clip-rule="evenodd" d="M61.104 72.5696C61.0844 72.4898 61.0622 72.3989 61.0294 72.2638C60.9966 72.1288 60.9972 71.9404 60.9329 71.8369C60.8686 71.7334 60.795 71.7015 60.8121 71.5565C60.8291 71.4115 60.8342 71.4315 60.8442 71.3443C60.8474 71.2591 60.8442 71.1286 60.9066 71.1042C60.9677 71.0749 61.0281 71.3231 61.0741 71.3964C61.1201 71.4697 61.0558 71.6517 61.1525 71.769C61.2493 71.8864 61.438 71.9481 61.2859 72.0343C61.1339 72.1204 61.1654 72.2677 61.1827 72.4043C61.1953 72.5126 61.2401 72.6146 61.3113 72.6972C61.3615 72.7554 61.2792 72.7898 61.2397 72.7496C61.2001 72.7094 61.0789 72.9341 61.1072 72.7679C61.1377 72.6104 61.1201 72.6358 61.104 72.5696Z" fill="#6E798D"></path><path fill-rule="evenodd" clip-rule="evenodd" d="M52.7177 66.3771C52.8888 66.3356 52.9209 66.3022 53.0804 66.2633C53.2325 66.226 53.2681 66.1752 53.199 66.0231C53.1299 65.871 53.0556 65.7981 52.8698 65.8302C52.6817 65.8665 52.6608 65.6489 52.6161 65.8302C52.5715 66.0115 52.6187 66.0385 52.5383 66.2549C52.458 66.4713 52.4126 66.532 52.4994 66.525C52.5862 66.5179 52.638 66.3967 52.7177 66.3771Z" fill="#6E798D"></path><path fill-rule="evenodd" clip-rule="evenodd" d="M52.3943 66.0898C52.3412 66.0043 52.3351 66.0127 52.392 65.8818C52.4441 65.7494 52.3673 65.6812 52.159 65.7179C51.9429 65.7564 51.8204 65.6172 51.6079 65.8522C51.3954 66.0873 51.1433 66.1094 51.3186 66.2059C51.4886 66.3097 51.552 66.2544 51.7883 66.3666C52.0246 66.4788 52.0603 66.5747 52.2239 66.42C52.3798 66.2622 52.4422 66.1696 52.3943 66.0898Z" fill="#6E798D"></path><path fill-rule="evenodd" clip-rule="evenodd" d="M51.6736 65.6249C51.7427 65.5448 51.7209 65.522 51.6315 65.4522C51.535 65.3844 51.4386 65.161 51.3071 65.2449C51.1756 65.3288 50.9837 65.3873 50.9097 65.5786C50.8358 65.7699 50.7879 65.8548 50.9168 65.8888C51.0457 65.9229 51.0875 65.9788 51.273 65.9477C51.4585 65.9165 51.6093 65.6921 51.6736 65.6249Z" fill="#6E798D"></path><path fill-rule="evenodd" clip-rule="evenodd" d="M50.989 66.0665C50.8903 66.0906 50.8283 66.171 50.8926 66.2234C50.9492 66.2729 51.0328 66.2523 51.0855 66.2395C51.1463 66.2247 51.2266 66.1912 51.1633 66.1292C51.1408 66.1064 51.1134 66.089 51.0833 66.0781C51.0531 66.0673 51.0209 66.0633 50.989 66.0665Z" fill="#6E798D"></path><path fill-rule="evenodd" clip-rule="evenodd" d="M58.9326 65.8846C59.082 65.8671 59.2286 65.8313 59.3692 65.7782C59.5416 65.7078 59.5425 65.6303 59.6551 65.6123C59.7676 65.5943 59.7955 65.5782 59.7955 65.4631C59.7955 65.348 59.6457 65.2766 59.493 65.3281C59.3403 65.3795 59.1667 65.2104 59.1622 65.357C59.1497 65.503 59.1278 65.4801 58.9918 65.4499C58.8475 65.4197 58.7533 65.4801 58.6645 65.593C58.5758 65.7058 58.7397 65.9032 58.9326 65.8846Z" fill="#6E798D"></path><path fill-rule="evenodd" clip-rule="evenodd" d="M60.1938 65.495C60.0887 65.4761 59.7563 65.3664 60.0231 65.2902C60.29 65.214 60.3896 65.2407 60.5144 65.2259C60.643 65.2041 60.7745 65.1858 60.8015 65.2967C60.8285 65.4076 60.8336 65.4317 60.6214 65.4835C60.4818 65.5212 60.3353 65.5251 60.1938 65.495Z" fill="#6E798D"></path><path fill-rule="evenodd" clip-rule="evenodd" d="M65.947 65.3373C66.1078 65.3052 66.2566 65.273 66.2605 65.2213C66.2643 65.1695 66.3199 65.0354 66.0997 65.0891C65.8718 65.1447 65.7512 65.0965 65.6789 65.229C65.6065 65.3614 65.6892 65.3862 65.947 65.3373Z" fill="#6E798D"></path><path fill-rule="evenodd" clip-rule="evenodd" d="M61.8762 73.0641C61.8338 73.0885 61.8688 72.9355 61.8688 72.9355C61.8688 72.9355 61.9569 72.9676 61.9653 73.0036C61.9736 73.0397 61.9109 73.0416 61.8762 73.0641Z" fill="#6E798D"></path><path fill-rule="evenodd" clip-rule="evenodd" d="M62.0485 72.8133C61.9932 72.8667 62.0366 72.7645 62.1003 72.6953C62.1566 72.631 62.1742 72.4703 62.2192 72.5889C62.2643 72.7076 62.308 72.722 62.1955 72.7892C62.0762 72.8606 62.0878 72.7757 62.0485 72.8133Z" fill="#6E798D"></path><path fill-rule="evenodd" clip-rule="evenodd" d="M62.9777 71.2405C62.9188 71.2971 62.9047 71.3369 62.9529 71.3874C63.0011 71.4379 63.0342 71.4401 63.0973 71.4012C63.1603 71.3623 63.2635 71.2906 63.1956 71.2437C63.1278 71.1968 63.0156 71.1984 62.9777 71.2405Z" fill="#6E798D"></path><path fill-rule="evenodd" clip-rule="evenodd" d="M62.3209 72.5442C62.329 72.5763 62.3695 72.5956 62.4553 72.5184C62.5412 72.4413 62.5196 72.3461 62.4958 72.3374C62.472 72.3287 62.3579 72.3992 62.3351 72.4339C62.323 72.4693 62.3182 72.5068 62.3209 72.5442Z" fill="#6E798D"></path><path fill-rule="evenodd" clip-rule="evenodd" d="M62.5848 72.2395C62.5716 72.2192 62.5848 72.2327 62.6391 72.1488C62.6877 72.0665 62.7658 72.0405 62.7648 71.954C62.7627 71.9174 62.7679 71.8808 62.7803 71.8463C62.7927 71.8118 62.8119 71.7802 62.8369 71.7534C62.8899 71.7077 62.9655 71.6569 62.9217 71.7559C62.878 71.8549 62.8201 71.9006 62.816 71.9488C62.8023 72.0238 62.7675 72.0933 62.7157 72.1491C62.6594 72.2141 62.5951 72.2488 62.5848 72.2395Z" fill="#6E798D"></path><path d="M101.323 94.4334C101.274 94.5875 101.195 94.7304 101.091 94.8539C100.986 94.9774 100.858 95.0791 100.715 95.1532C100.571 95.2273 100.414 95.2723 100.253 95.2858C100.091 95.2992 99.9291 95.2807 99.7751 95.2314L0.856216 63.5768C0.545111 63.4771 0.286315 63.258 0.136737 62.9676C-0.0128406 62.6772 -0.0409529 62.3393 0.0585823 62.0281L15.1542 14.8558C15.2538 14.5449 15.4728 14.2862 15.7631 14.1367C16.0534 13.9872 16.3912 13.9591 16.7022 14.0585L115.621 45.7131C115.775 45.7624 115.918 45.8415 116.042 45.946C116.165 46.0504 116.267 46.1782 116.341 46.3219C116.415 46.4657 116.46 46.6226 116.473 46.7837C116.487 46.9449 116.468 47.1071 116.419 47.2611L101.323 94.4334Z" fill="#F1F5FE"></path><path d="M68.433 38.7485L67.807 40.7052L108.044 53.5774L108.67 51.6207L68.433 38.7485Z" fill="#6E798D"></path><path d="M12.3471 37.0923L12.0656 37.9724L50.1868 50.1677L50.4683 49.2877L12.3471 37.0923Z" fill="#6E798D"></path><path d="M58.9622 52.9804L53.8826 51.3552L55.5077 46.2756L60.5874 47.9004L58.9622 52.9804ZM54.3722 51.1035L58.7124 52.492L60.1006 48.1518L55.762 46.7633L54.3722 51.1035Z" fill="#6E798D"></path><path d="M65.4089 55.0435L60.3292 53.4183L61.9544 48.3386L67.034 49.9638L65.4089 55.0435ZM60.8189 53.1666L65.1571 54.5551L66.5457 50.2149L62.2055 48.8267L60.8189 53.1666Z" fill="#6E798D"></path><path d="M71.8542 57.1064L66.7745 55.4816L68.3997 50.4019L73.4794 52.0271L71.8542 57.1064ZM67.2639 55.2298L71.6041 56.6181L72.9926 52.2795L68.6524 50.8909L67.2639 55.2298Z" fill="#6E798D"></path><path d="M78.3018 59.1699L73.2222 57.5447L74.8473 52.4651L79.927 54.0902L78.3018 59.1699ZM73.7121 57.293L78.0507 58.6816L79.4393 54.3413L75.0991 52.9528L73.7121 57.293Z" fill="#6E798D"></path><path d="M84.7485 61.2325L79.6688 59.6073L81.294 54.5276L86.372 56.1528L84.7485 61.2325ZM80.1585 59.3556L84.4971 60.7454L85.8856 56.4052L81.5454 55.017L80.1585 59.3556Z" fill="#6E798D"></path><path d="M91.1955 63.2951L86.1158 61.6703L87.741 56.5906L92.8191 58.2158L91.1955 63.2951ZM86.6048 61.4185L90.9451 62.8071L92.3336 58.4669L87.9934 57.0802L86.6048 61.4185Z" fill="#6E798D"></path><path d="M97.6419 65.3583L92.5623 63.7334L94.1874 58.6538L99.2655 60.2786L97.6419 65.3583ZM93.0519 63.4817L97.3905 64.8699L98.7787 60.5297L94.4401 59.1412L93.0519 63.4817Z" fill="#6E798D"></path><path d="M104.089 67.4212L99.0089 65.796L100.634 60.7163L105.712 62.3412L104.089 67.4212ZM99.4986 65.5443L103.839 66.9328L105.227 62.5926L100.887 61.2041L99.4986 65.5443Z" fill="#6E798D"></path><path d="M8.41828 49.3633L8.13684 50.2431L98.4485 79.1347L98.7299 78.2549L8.41828 49.3633Z" fill="#6E798D"></path><path d="M98.3231 93.4708L3.06032 62.9865C2.63799 62.8508 2.28673 62.5531 2.08362 62.1587C1.8805 61.7644 1.84211 61.3056 1.97687 60.8829L16.051 16.9021C16.1867 16.4798 16.4843 16.1285 16.8786 15.9254C17.2729 15.7223 17.7317 15.6839 18.1543 15.8187L113.417 46.3034C113.839 46.439 114.191 46.7366 114.394 47.1309C114.597 47.5252 114.635 47.984 114.501 48.4066L100.427 92.3874C100.291 92.8097 99.9933 93.161 99.5989 93.3641C99.2046 93.5672 98.7457 93.6056 98.3231 93.4708ZM17.845 16.7854C17.6788 16.7323 17.4983 16.7474 17.3431 16.8272C17.188 16.9071 17.0709 17.0452 17.0175 17.2114L2.94329 61.1922C2.89031 61.3585 2.90544 61.539 2.98536 61.6941C3.06528 61.8492 3.20346 61.9664 3.3696 62.0197L98.6324 92.5044C98.7987 92.5574 98.9792 92.5423 99.1343 92.4623C99.2894 92.3824 99.4065 92.2443 99.4599 92.0781L113.534 48.0973C113.587 47.931 113.572 47.7505 113.492 47.5954C113.412 47.4403 113.274 47.3232 113.108 47.2698L17.845 16.7854Z" fill="#6E798D"></path><path d="M28.8643 24.7866C29.1447 24.8188 29.6915 24.9496 30.1921 25.11C30.8049 25.3062 31.1617 25.4856 31.4234 25.78C31.6806 26.0437 31.8073 26.4189 31.6787 26.8207C31.5524 27.2159 31.2035 27.5113 30.6438 27.5354L30.6393 27.5486C31.1026 27.8495 31.3559 28.3523 31.1724 28.9253C31.0438 29.3271 30.7583 29.5843 30.4094 29.72C30.0044 29.8737 29.4176 29.8457 28.5348 29.5631C28.1701 29.4502 27.8138 29.312 27.4684 29.1493L28.8643 24.7866ZM29.3144 26.8053L29.644 26.9108C30.1712 27.0795 30.5242 26.9525 30.6297 26.6233C30.737 26.287 30.5371 26.027 30.0831 25.8816C29.9406 25.8332 29.7945 25.7961 29.6462 25.7707L29.3144 26.8053ZM28.6849 28.7758C28.8106 28.8294 28.9395 28.8754 29.0707 28.9134C29.5253 29.059 29.9822 29.0162 30.1317 28.5481C30.2751 28.1003 29.9301 27.7936 29.4292 27.6332L29.0865 27.5235L28.6849 28.7758Z" fill="#6E798D"></path><path d="M32.8152 29.6243L32.134 30.6631L31.0927 30.3316L33.8717 26.3245L35.1898 26.7463L35.1458 31.6286L34.0649 31.2826L34.0871 30.033L32.8152 29.6243ZM34.1826 29.2337L34.2073 28.203C34.2125 27.9137 34.2395 27.56 34.2571 27.2745L34.2443 27.2703C34.0938 27.5128 33.9205 27.8278 33.7656 28.0616L33.2007 28.9203L34.1826 29.2337Z" fill="#6E798D"></path><path d="M35.7382 31.8173L37.1595 27.3755L38.3326 27.751L38.7345 29.6739C38.852 30.2529 38.9313 30.8389 38.9721 31.4283L38.9917 31.4347C39.1136 30.8271 39.2859 30.2211 39.4987 29.5552L39.9141 28.257L40.8368 28.5525L39.4151 32.994L38.3606 32.6567L37.96 30.6397C37.8382 30.0398 37.7484 29.4339 37.6909 28.8245H37.6691C37.5083 29.4196 37.3206 30.0494 37.0884 30.7744L36.6605 32.1121L35.7382 31.8173Z" fill="#6E798D"></path><path d="M41.7065 28.8306L42.7012 29.1492L42.073 31.1129L42.0926 31.1194C42.2463 30.9795 42.4025 30.8551 42.552 30.7287L44.0309 29.5752L45.2664 29.9694L43.1918 31.3904L43.9242 34.4362L42.7497 34.0611L42.2765 31.7955L41.7444 32.1411L41.2799 33.5907L40.2852 33.2724L41.7065 28.8306Z" fill="#6E798D"></path><path d="M48.9637 35.9116C48.7496 35.9438 48.303 35.9116 47.7626 35.738C46.2271 35.2465 45.742 34.038 46.1467 32.7725C46.6319 31.257 47.9825 30.7593 49.327 31.1895C49.8475 31.356 50.2092 31.5882 50.3577 31.736L49.8983 32.4681C49.6663 32.2718 49.3974 32.124 49.1074 32.0334C48.3101 31.7782 47.5366 32.0611 47.2202 33.0494C46.9357 33.9393 47.2845 34.6681 48.1799 34.9549C48.4831 35.0513 48.8402 35.0934 49.063 35.0777L48.9637 35.9116Z" fill="#6E798D"></path><path d="M52.0121 32.1284L51.4655 33.8352L53.1196 34.3647L53.6662 32.6579L54.668 32.9794L53.2466 37.4209L52.2448 37.0994L52.8396 35.2411L51.1855 34.7116L50.5907 36.5699L49.5825 36.2484L51.0039 31.8069L52.0121 32.1284Z" fill="#6E798D"></path><path d="M57.3663 36.668L55.7318 36.1449L55.3935 37.1991L57.219 37.7833L56.9554 38.6073L54.1217 37.7003L55.543 33.2588L58.287 34.1359L58.0234 34.9595L56.2902 34.405L55.9951 35.3277L57.6292 35.8507L57.3663 36.668Z" fill="#6E798D"></path><path d="M60.9436 39.7452C60.7295 39.7773 60.2826 39.7452 59.7422 39.5715C58.2067 39.08 57.7219 37.8715 58.1266 36.6061C58.6118 35.0905 59.9624 34.5928 61.3069 35.023C61.8274 35.1895 62.1891 35.4217 62.3357 35.5696L61.8763 36.3016C61.6443 36.1054 61.3754 35.9576 61.0854 35.8669C60.2881 35.6117 59.5149 35.8946 59.1985 36.8829C58.9137 37.7728 59.2628 38.5016 60.1579 38.7884C60.461 38.8848 60.8182 38.9269 61.0413 38.9112L60.9436 39.7452Z" fill="#6E798D"></path><path d="M62.9834 35.6396L63.9801 35.9579L63.3516 37.9216L63.3715 37.928C63.5252 37.7885 63.6811 37.664 63.8306 37.5374L65.3095 36.3838L66.5421 36.7783L64.4672 38.1993L65.1992 41.2452L64.0264 40.8697L63.5528 38.6041L63.0207 38.9497L62.5568 40.3993L61.5602 40.0811L62.9834 35.6396Z" fill="#6E798D"></path><path d="M17.1647 27.2255C17.103 27.2059 17.0792 27.239 17.0593 27.301L17.0069 27.4705C16.9869 27.5325 16.9898 27.565 17.0515 27.5846L17.601 27.7598L18.152 27.936C18.2141 27.9559 18.2404 27.9328 18.2604 27.8717L18.3144 27.7029C18.334 27.6412 18.3288 27.5984 18.2668 27.5785L18.2565 27.5753L19.8508 22.5869L19.8611 22.5901C19.9232 22.61 19.9415 22.612 19.9614 22.5502L20.0154 22.3811C20.035 22.3194 20.0379 22.2525 19.9759 22.2316L19.4248 22.0551L18.8738 21.879C18.8121 21.859 18.7802 21.9179 18.7603 21.9796L18.7063 22.1487C18.6864 22.2104 18.6973 22.2178 18.759 22.2374L18.7751 22.2426L17.1808 27.2306L17.1647 27.2255Z" fill="#6E798D"></path><path d="M20.5217 28.3531C20.4596 28.3331 20.3963 28.3531 20.3767 28.4174L20.3224 28.5862C20.3027 28.6482 20.3449 28.6932 20.4069 28.7132L20.958 28.8893L21.5077 29.0642C21.5694 29.0842 21.6013 29.0623 21.6212 28.9999L21.6752 28.8311C21.6948 28.7691 21.6842 28.7247 21.6225 28.7051L21.617 28.7032L23.2117 23.7158L23.2168 23.7178C23.2788 23.7374 23.3023 23.7412 23.3219 23.6792L23.3759 23.5104C23.3959 23.4487 23.3936 23.3789 23.3316 23.359L22.7805 23.1828L22.2295 23.0063C22.1975 22.9992 22.1641 23.0043 22.1357 23.0206C22.1074 23.0369 22.0861 23.0632 22.0761 23.0944L22.0221 23.2635C22.0025 23.3252 22.0543 23.3452 22.1147 23.3651L22.1359 23.3718L20.5432 28.3598L20.5217 28.3531Z" fill="#6E798D"></path><path d="M24.0154 29.4348C24.0021 29.429 23.9877 29.4261 23.9732 29.4263C23.9587 29.4264 23.9443 29.4296 23.9311 29.4357C23.9179 29.4418 23.9061 29.4505 23.8966 29.4615C23.887 29.4724 23.8798 29.4852 23.8756 29.4991L23.8225 29.6682C23.8026 29.73 23.8399 29.7737 23.9016 29.7933L24.4527 29.9698L25.0037 30.146C25.0658 30.1659 25.1027 30.146 25.1223 30.0839L25.1764 29.9151C25.1963 29.8534 25.1805 29.8071 25.1185 29.7865L25.0738 29.7721L26.6681 24.7841L26.7128 24.7985C26.7748 24.8185 26.8035 24.8236 26.8234 24.7619L26.8774 24.5931C26.8973 24.531 26.8896 24.4597 26.8276 24.44L26.2765 24.2635L25.7255 24.087C25.6637 24.0674 25.5969 24.115 25.5776 24.1771L25.5236 24.3459C25.5036 24.4079 25.549 24.4259 25.6107 24.4458L25.5924 24.44L23.9984 29.4287L24.0154 29.4348Z" fill="#6E798D"></path><path d="M27.7098 24.3471L23.874 19.8027L23.8749 19.7998L18.0861 21.2674L22.8982 22.8074L27.7098 24.3471Z" fill="#6E798D"></path><path d="M16.4188 27.5159L16.3002 27.8867L25.2706 30.7564L25.3892 30.3856L16.4188 27.5159Z" fill="#6E798D"></path><path d="M16.0804 27.8181L15.9617 28.1889L25.3765 31.2026L25.4952 30.8318L16.0804 27.8181Z" fill="#6E798D"></path><path d="M15.5653 28.1428L15.3993 28.6618L25.556 31.911L25.722 31.392L15.5653 28.1428Z" fill="#6E798D"></path><path d="M10.5208 42.8877L10.2391 43.7677L100.528 72.6693L100.809 71.7893L10.5208 42.8877Z" fill="#6E798D"></path><path fill-rule="evenodd" clip-rule="evenodd" d="M77.6624 36.4763C78.8369 35.7867 80.0695 35.2012 81.3461 34.7267L81.6843 35.3983C82.147 35.1877 82.4402 34.7553 82.2679 34.4136L80.4003 30.6974C79.3265 28.5604 76.5134 27.9894 74.1176 29.4223C71.7218 30.8552 70.6496 33.7497 71.7234 35.887L73.5903 39.6028C73.763 39.9456 74.2545 39.9076 74.6664 39.5958L74.3288 38.9238C75.3683 38.0147 76.4838 37.1959 77.6624 36.4763Z" fill="#3E6FFF"></path><path fill-rule="evenodd" clip-rule="evenodd" d="M74.6666 39.5952L92.2326 74.5458L99.2499 70.3483L81.6836 35.3981L81.3467 34.7268C80.0697 35.201 78.8367 35.7863 77.662 36.4761C76.4837 37.1958 75.3689 38.0148 74.3297 38.9239L74.6666 39.5952Z" fill="#153BAA"></path><path fill-rule="evenodd" clip-rule="evenodd" d="M76.178 28.6805L74.4882 25.3186C74.025 24.3969 72.8113 24.1509 71.778 24.7688C70.7447 25.3867 70.2824 26.6354 70.746 27.5572L72.4358 30.9194C72.8965 30.3186 73.4669 29.8107 74.1169 29.4225C74.7476 29.0402 75.4484 28.7879 76.178 28.6805Z" fill="#6E798D"></path><path fill-rule="evenodd" clip-rule="evenodd" d="M110.351 101.515L111.332 100.928C111.298 97.446 109.571 93.2296 108.067 90.4946C106.565 91.5826 105.608 92.0793 105.608 92.0793C105.608 92.0793 104.711 92.6901 103.062 93.4878C104.367 96.342 106.697 100.198 109.369 102.102L110.351 101.515Z" fill="#6E798D"></path><path fill-rule="evenodd" clip-rule="evenodd" d="M111.585 103.971C111.953 103.75 111.635 102.338 111.167 101.027L110.352 101.515L109.537 102.003C110.298 103.139 111.218 104.191 111.585 103.971Z" fill="#1A1A1A"></path><path fill-rule="evenodd" clip-rule="evenodd" d="M75.1702 28.9273L73.8154 26.2331C73.5682 25.7396 72.9187 25.6088 72.3661 25.939C71.8134 26.2691 71.5662 26.9372 71.8137 27.4304L73.1682 30.1249C73.4605 29.8598 73.7785 29.6244 74.1173 29.4221C74.4504 29.2218 74.8035 29.056 75.1702 28.9273Z" fill="#6E798D"></path><path fill-rule="evenodd" clip-rule="evenodd" d="M77.6624 36.4762C78.666 35.8859 79.7131 35.3726 80.7944 34.9407L79.0905 31.5499C78.3475 30.071 76.4011 29.6765 74.7438 30.668C73.0865 31.6595 72.3451 33.6618 73.0878 35.1404L74.7917 38.5312C75.6968 37.7764 76.6561 37.0895 77.6624 36.4762Z" fill="#153BAA"></path><path fill-rule="evenodd" clip-rule="evenodd" d="M86.2203 53.5038C83.9609 54.7749 85.024 51.9226 81.423 46.7131C77.9797 41.7299 72.6117 35.579 76.1485 33.4639C79.6853 31.3487 81.5528 39.5932 83.5516 45.4396C85.6413 51.5529 88.4187 52.1088 86.2203 53.5038Z" fill="#6E798D"></path><path fill-rule="evenodd" clip-rule="evenodd" d="M110.351 101.515L111.206 101.003C110.183 97.8461 108.545 94.18 107.063 91.2007C106.147 91.7958 105.609 92.0794 105.609 92.0794C105.609 92.0794 105.1 92.4221 104.148 92.9442C105.654 95.9094 107.605 99.3892 109.496 102.025L110.351 101.515Z" fill="#6E798D"></path><path fill-rule="evenodd" clip-rule="evenodd" d="M105.609 92.0795C105.609 92.0795 106.781 91.4706 108.567 90.1248C110.353 88.779 107.67 86.2166 106.094 83.7344C104.518 81.2521 101.76 74.292 100.725 71.5798C99.6891 68.8677 96.9198 70.7079 95.3412 71.6522C93.7627 72.5964 90.8502 74.1518 92.3905 76.5631C93.9308 78.9743 97.8264 85.2547 98.8976 88.0405C99.9688 90.8263 100.505 94.6701 102.506 93.7506C104.507 92.8311 105.609 92.0795 105.609 92.0795Z" fill="#3E6FFF"></path><path fill-rule="evenodd" clip-rule="evenodd" d="M110.351 101.515L110.699 101.307C109.419 98.3035 107.687 94.6934 106.198 91.7173C105.837 91.9819 105.609 92.0793 105.609 92.0793C105.609 92.0793 105.411 92.2362 105.013 92.4262C106.512 95.3962 108.371 98.9304 110.004 101.723L110.351 101.515Z" fill="#6E798D"></path><path fill-rule="evenodd" clip-rule="evenodd" d="M86.2203 53.5039C85.0407 54.1292 85.1735 51.8321 81.9386 46.4046C78.8455 41.2128 74.3252 34.5539 76.1484 33.464C77.9716 32.3742 80.687 40.111 83.0359 45.7478C85.4921 51.6424 87.3381 52.7545 86.2187 53.5039" fill="#6E798D"></path></g><defs><clipPath id="clip0_40_120"><rect width="117" height="90" fill="white" transform="translate(0 14)"></rect></clipPath></defs></svg>