<svg xmlns="http://www.w3.org/2000/svg" width="117" height="117" viewBox="0 0 117 117" fill="none"><g clip-path="url(#clip0_40_179)"><path opacity="0.95" d="M91.2444 15.9868H25.7556C21.4723 15.9868 18 19.4591 18 23.7425V103.307C18 107.591 21.4723 111.063 25.7556 111.063H91.2444C95.5277 111.063 99 107.591 99 103.307V23.7425C99 19.4591 95.5277 15.9868 91.2444 15.9868Z" fill="#F1F5FE"></path><path d="M61.1497 72.075H54.726V73.2644H61.1497V72.075Z" fill="#3E6FFF"></path><path d="M67.7182 82.978H30.3359V85.2815H67.7182V82.978Z" fill="#6E798D"></path><path d="M60.5651 94.0381H30.3359V96.3416H60.5651V94.0381Z" fill="#6E798D"></path><path d="M48.0576 88.5073H30.3359V90.8109H48.0576V88.5073Z" fill="#6E798D"></path><path d="M77.4992 25.468V26.6304H84.3493V33.0587H85.5129V25.468H77.4992ZM30.9799 33.0587H32.1435V26.6293H38.9936V25.468H30.9799V33.0587ZM84.3493 66.2345V72.6672H77.4992V73.8308H85.5129V66.2345H84.3493ZM32.1435 66.2345H30.9799V73.8296H38.9936V72.6672H32.1491L32.1435 66.2345Z" fill="#3E6FFF"></path><path d="M81.8853 96.5109C80.5303 96.5109 79.2057 96.1091 78.079 95.3562C76.9523 94.6034 76.0741 93.5334 75.5556 92.2815C75.037 91.0296 74.9013 89.652 75.1657 88.323C75.4301 86.994 76.0826 85.7732 77.0408 84.815C77.9989 83.8569 79.2197 83.2043 80.5487 82.94C81.8777 82.6756 83.2553 82.8113 84.5072 83.3299C85.7591 83.8484 86.8291 84.7266 87.5819 85.8533C88.3348 86.9799 88.7366 88.3046 88.7366 89.6596C88.7345 91.476 88.012 93.2175 86.7276 94.5019C85.4432 95.7863 83.7018 96.5088 81.8853 96.5109ZM81.8853 84.1346C80.7926 84.1346 79.7244 84.4586 78.8158 85.0657C77.9072 85.6728 77.1991 86.5357 76.7809 87.5453C76.3627 88.5548 76.2533 89.6657 76.4665 90.7375C76.6797 91.8092 77.2059 92.7937 77.9786 93.5664C78.7512 94.3391 79.7357 94.8653 80.8074 95.0784C81.8792 95.2916 82.9901 95.1822 83.9996 94.764C85.0092 94.3459 85.8721 93.6377 86.4792 92.7291C87.0863 91.8206 87.4103 90.7524 87.4103 89.6596C87.4085 88.1948 86.8259 86.7906 85.7901 85.7548C84.7544 84.7191 83.3501 84.1364 81.8853 84.1346Z" fill="#3E6FFF"></path><path d="M81.4488 92.3562L78.3362 89.2436L79.2743 88.3067L81.4488 90.4812L84.4974 87.4326L85.4355 88.3695L81.4488 92.3562Z" fill="#3E6FFF"></path><path d="M82.967 61.4465H75.2775C74.7715 57.7673 74.1499 53.5663 74.1499 53.5663C74.1499 53.5663 73.8391 57.0324 73.462 61.4465H42.7177C42.4372 57.4778 42.0995 54.5077 41.9783 54.4472C41.801 54.3585 40.7048 57.8795 39.7937 61.4465H31.4647C33.6055 52.2232 37.5989 37.4278 39.907 36.5369C43.1935 35.2802 56.5987 31.1511 56.5987 31.1511H64.2466C64.2466 31.1511 77.8369 35.0278 79.1004 39.2433C80.1012 42.6027 82.3184 53.6797 82.967 61.4465Z" fill="#3E6FFF"></path><path d="M60.7705 6.3406C60.7705 6.3406 67.9112 7.46265 66.824 18.6394C65.7367 29.8162 59.4341 28.8961 59.0122 28.8849C58.5903 28.8737 52.6861 29.0891 52.2227 15.4427C52.2227 15.4427 52.0241 5.35992 60.7705 6.3406Z" fill="#EEA987"></path><path d="M64.103 25.5938C64.103 25.5938 63.9078 30.1942 64.3521 31.1838C64.7964 32.1735 58.4591 35.3747 54.5902 31.8133C54.5902 31.8133 55.5249 26.8191 55.2634 25.0496C55.002 23.2801 64.103 25.5938 64.103 25.5938Z" fill="#EEA987"></path><path d="M66.9339 15.4831C66.9339 15.4831 67.7193 14.6482 68.0032 15.4931C68.2871 16.3381 66.7903 20.1171 66.8879 20.2866C66.8879 20.2866 66.7454 20.6142 66.558 20.4336C66.3706 20.2529 66.9339 15.4831 66.9339 15.4831Z" fill="#EEA987"></path><path d="M52.3057 15.3417C52.3057 15.3417 51.5405 14.4911 51.2364 15.3316C50.9323 16.172 52.3585 19.978 52.2597 20.1452C52.2597 20.1452 52.3955 20.4818 52.5874 20.2989C52.7792 20.116 52.3057 15.3417 52.3057 15.3417Z" fill="#EEA987"></path><path d="M66.9306 17.1963L65.9117 18.563C65.9117 18.563 65.9409 15.5671 65.7771 15.0969C65.6133 14.6268 65.3619 13.1895 65.225 12.8529C65.0882 12.5163 59.0885 10.8354 53.7935 13.3443C53.7935 13.3443 54.0269 15.4986 53.5186 15.6905C53.0104 15.8824 53.2606 19.1992 53.2606 19.1992L52.419 18.251C52.419 18.251 51.1332 9.65503 51.4507 8.75963C51.7682 7.86423 52.7837 2.47725 63.6452 5.67398C63.6452 5.67398 67.0316 4.95699 67.7115 7.29535C68.3915 9.63371 66.9306 17.1963 66.9306 17.1963Z" fill="#3E3E3E"></path><path d="M64.3521 31.184C64.3521 31.184 65.9634 31.5285 59.2209 37.9893C59.2209 37.9893 54.4387 32.6999 54.5936 31.818C54.7484 30.9361 64.3521 31.184 64.3521 31.184Z" fill="#EEA987"></path><path d="M59.2209 37.9891L61.0611 41.1353L66.5199 31.8683L64.1557 30.22L59.2209 37.9891Z" fill="#153BAA"></path><path d="M59.2209 37.9888L54.7563 30.884L52.2249 32.5109L56.7636 41.135L59.2209 37.9888Z" fill="#153BAA"></path><path d="M57.8329 57.6735C57.8879 58.7203 57.9126 60.0062 57.9148 61.4503H57.6624C57.6624 60.0118 57.6355 58.7304 57.5805 57.6858C57.1653 49.8034 59.075 40.212 59.0874 37.9646L59.3342 38.0128C59.3264 40.2603 57.4234 49.8247 57.8329 57.6735Z" fill="#153BAA"></path><path d="M55.9333 27.5699C55.9333 27.5699 57.6299 29.3652 60.0255 28.8849C62.4211 28.4047 63.487 27.314 63.487 27.314C63.487 27.314 62.5411 29.6872 59.7697 29.9037C56.9982 30.1203 55.9333 27.5699 55.9333 27.5699Z" fill="#C78D71"></path></g><defs><clipPath id="clip0_40_179"><rect width="81" height="108" fill="white" transform="translate(18 4)"></rect></clipPath></defs></svg>