<svg xmlns="http://www.w3.org/2000/svg" width="117" height="117" viewBox="0 0 117 117" fill="none"><g clip-path="url(#clip0_40_258)"><path d="M80.6778 16.967H95.2581C95.9221 16.967 96.5797 17.0993 97.1933 17.3563C97.8069 17.6133 98.3644 17.99 98.8339 18.4649C99.3035 18.9398 99.6759 19.5035 99.9301 20.124C100.184 20.7444 100.315 21.4094 100.315 22.0809V100.248C100.315 101.604 99.782 102.905 98.8337 103.863C97.8854 104.822 96.5991 105.361 95.2581 105.361H22.7045C21.3634 105.361 20.0772 104.822 19.1289 103.863C18.1806 102.905 17.6478 101.604 17.6478 100.248V22.0809C17.6478 20.7248 18.1806 19.4242 19.1289 18.4653C20.0772 17.5064 21.3634 16.9677 22.7045 16.9677L80.6778 16.967Z" fill="#F1F5FE"></path><path d="M79.0294 16.967H93.6109C94.275 16.9671 94.9324 17.0995 95.546 17.3565C96.1594 17.6135 96.7168 17.9903 97.1864 18.4651C97.6558 18.94 98.0282 19.5037 98.2823 20.1241C98.5363 20.7445 98.6671 21.4094 98.6669 22.0809V100.248C98.6668 101.604 98.1341 102.904 97.1859 103.863C96.2377 104.822 94.9518 105.36 93.6109 105.36H21.0567C19.7157 105.36 18.4296 104.822 17.4813 103.863C16.533 102.904 16.0002 101.604 16 100.248V22.0809C15.9999 21.4094 16.1306 20.7444 16.3847 20.124C16.6388 19.5035 17.0113 18.9398 17.4809 18.4649C17.9504 17.99 18.5079 17.6133 19.1215 17.3563C19.735 17.0993 20.3926 16.967 21.0567 16.967H79.0294Z" fill="#F1F5FE"></path><path d="M79.0294 16.967H93.6109C94.275 16.9671 94.9324 17.0995 95.546 17.3565C96.1594 17.6135 96.7168 17.9903 97.1864 18.4651C97.6558 18.94 98.0282 19.5037 98.2823 20.1241C98.5363 20.7445 98.6671 21.4094 98.6669 22.0809V40.0235H16V22.0809C15.9999 21.4094 16.1306 20.7444 16.3847 20.124C16.6388 19.5035 17.0113 18.9398 17.4809 18.4649C17.9504 17.99 18.5079 17.6133 19.1215 17.3563C19.735 17.0993 20.3926 16.967 21.0567 16.967H79.0294Z" fill="#3E6FFF"></path><path d="M98.6669 41.4458H16" stroke="#3E6FFF" stroke-width="3.26994" stroke-miterlimit="10"></path><path d="M73.1379 29.9377H41.529" stroke="#3E6FFF" stroke-width="4.83999" stroke-miterlimit="10" stroke-linecap="round"></path><path d="M81.0883 22.0191V14.0464" stroke="#525252" stroke-width="3.26994" stroke-miterlimit="10" stroke-linecap="round"></path><path d="M33.5786 22.0191V14.0464" stroke="#525252" stroke-width="3.26994" stroke-miterlimit="10" stroke-linecap="round"></path><path d="M52.6248 49.4355H43.7864C43.3768 49.4355 43.0447 49.7713 43.0447 50.1855V59.1226C43.0447 59.5368 43.3768 59.8724 43.7864 59.8724H52.6248C53.0344 59.8724 53.3665 59.5368 53.3665 59.1226V50.1855C53.3665 49.7713 53.0344 49.4355 52.6248 49.4355Z" fill="#6E798D"></path><path d="M70.9254 49.4355H62.087C61.6774 49.4355 61.3455 49.7713 61.3455 50.1855V59.1226C61.3455 59.5368 61.6774 59.8724 62.087 59.8724H70.9254C71.335 59.8724 71.6671 59.5368 71.6671 59.1226V50.1855C71.6671 49.7713 71.335 49.4355 70.9254 49.4355Z" fill="#6E798D"></path><path d="M89.2262 49.4355H80.3877C79.9782 49.4355 79.6461 49.7713 79.6461 50.1855V59.1226C79.6461 59.5368 79.9782 59.8724 80.3877 59.8724H89.2262C89.6357 59.8724 89.9677 59.5368 89.9677 59.1226V50.1855C89.9677 49.7713 89.6357 49.4355 89.2262 49.4355Z" fill="#6E798D"></path><path d="M34.3241 68.2622H25.4856C25.0761 68.2622 24.744 68.598 24.744 69.0122V77.9493C24.744 78.3634 25.0761 78.6991 25.4856 78.6991H34.3241C34.7336 78.6991 35.0657 78.3634 35.0657 77.9493V69.0122C35.0657 68.598 34.7336 68.2622 34.3241 68.2622Z" fill="#6E798D"></path><path d="M52.6248 68.2622H43.7864C43.3768 68.2622 43.0447 68.598 43.0447 69.0122V77.9493C43.0447 78.3634 43.3768 78.6991 43.7864 78.6991H52.6248C53.0344 78.6991 53.3665 78.3634 53.3665 77.9493V69.0122C53.3665 68.598 53.0344 68.2622 52.6248 68.2622Z" fill="#6E798D"></path><path d="M70.9254 68.2622H62.087C61.6774 68.2622 61.3455 68.598 61.3455 69.0122V77.9493C61.3455 78.3634 61.6774 78.6991 62.087 78.6991H70.9254C71.335 78.6991 71.6671 78.3634 71.6671 77.9493V69.0122C71.6671 68.598 71.335 68.2622 70.9254 68.2622Z" fill="#6E798D"></path><path d="M89.2262 68.2622H80.3877C79.9782 68.2622 79.6461 68.598 79.6461 69.0122V77.9493C79.6461 78.3634 79.9782 78.6991 80.3877 78.6991H89.2262C89.6357 78.6991 89.9677 78.3634 89.9677 77.9493V69.0122C89.9677 68.598 89.6357 68.2622 89.2262 68.2622Z" fill="#6E798D"></path><path d="M34.3241 87.0896H25.4856C25.0761 87.0896 24.744 87.4253 24.744 87.8395V96.7767C24.744 97.1909 25.0761 97.5266 25.4856 97.5266H34.3241C34.7336 97.5266 35.0657 97.1909 35.0657 96.7767V87.8395C35.0657 87.4253 34.7336 87.0896 34.3241 87.0896Z" fill="#6E798D"></path><path d="M52.6248 87.0896H43.7864C43.3768 87.0896 43.0447 87.4253 43.0447 87.8395V96.7767C43.0447 97.1909 43.3768 97.5266 43.7864 97.5266H52.6248C53.0344 97.5266 53.3665 97.1909 53.3665 96.7767V87.8395C53.3665 87.4253 53.0344 87.0896 52.6248 87.0896Z" fill="#6E798D"></path><path d="M70.9254 87.0896H62.087C61.6774 87.0896 61.3455 87.4253 61.3455 87.8395V96.7767C61.3455 97.1909 61.6774 97.5266 62.087 97.5266H70.9254C71.335 97.5266 71.6671 97.1909 71.6671 96.7767V87.8395C71.6671 87.4253 71.335 87.0896 70.9254 87.0896Z" fill="#3E6FFF"></path></g><defs><clipPath id="clip0_40_258"><rect width="85" height="94" fill="white" transform="translate(16 12)"></rect></clipPath></defs></svg>