<svg xmlns="http://www.w3.org/2000/svg" width="117" height="117" viewBox="0 0 117 117" fill="none"><path d="M107.869 62.1296C107.869 71.5513 105.206 80.3522 100.592 87.818C96.4222 94.5621 90.6836 100.198 83.8653 104.246C77.1574 108.227 69.5903 110.537 61.8023 110.981C60.8748 111.034 59.9404 111.062 58.9991 111.063H58.9344C31.9087 111.063 10 89.1542 10 62.1284C10 54.5025 11.7444 47.2836 14.8562 40.8498C20.5306 29.1171 30.7514 19.9941 43.2306 15.7683C48.2895 14.0583 53.5944 13.1891 58.9344 13.1951C85.9602 13.1951 107.869 35.1038 107.869 62.1296Z" fill="#F1F5FE"></path><g style="mix-blend-mode:multiply"><path d="M97.7645 87.8567C97.5075 87.39 97.1611 86.9785 96.7451 86.6456C96.3291 86.3128 95.8516 86.0651 95.3398 85.9168C94.8281 85.7685 94.2922 85.7225 93.7626 85.7813C93.2331 85.8401 92.7203 86.0027 92.2536 86.2597L91.4454 86.7042L90.2499 84.5366C90.053 84.179 89.7876 83.8637 89.4689 83.6088C89.1501 83.3538 88.7843 83.1641 88.3922 83.0505C88.0001 82.9369 87.5895 82.9017 87.1838 82.9468C86.7781 82.992 86.3853 83.1166 86.0278 83.3135L85.5079 83.5997C85.4275 83.0814 85.106 80.8517 85.106 78.3398C85.106 77.0513 85.1909 75.6883 85.4367 74.4454C86.2288 70.4298 86.6241 66.5292 86.7141 64.4678C86.8041 62.4064 86.76 60.5492 85.5112 57.4984C84.2625 54.4475 81.3417 47.0644 80.6095 44.1154C80.3909 43.2336 80.1855 42.3886 80.0004 41.5763C79.9024 41.1499 79.8105 40.732 79.7248 40.3228C79.5044 39.2768 79.3247 38.283 79.1969 37.3304C79.1511 36.9875 79.112 36.6487 79.0797 36.3141C79.0646 36.1591 79.0429 36.0099 79.0139 35.8659C78.871 35.1311 78.5657 34.5433 78.1825 34.0995C77.5212 33.3317 76.6347 32.987 75.9609 33.0418C75.9263 33.0447 75.8929 33.048 75.8591 33.0517C75.8319 33.0546 75.8055 33.058 75.779 33.0616C75.7526 33.0653 75.7342 33.0675 75.7118 33.0715L75.7008 33.0737L75.7122 33.0712C75.689 33.0749 75.6666 33.0793 75.6435 33.0833L75.6089 33.0895C74.7797 33.242 74.114 33.6774 73.5743 34.2384C73.2439 34.5821 72.9659 34.9725 72.7491 35.3971L72.593 33.9661L72.5783 33.8306L70.5128 14.9224L44.6528 17.7472C44.2218 17.0581 43.7468 16.3975 43.2306 15.7696C30.7514 19.9946 20.5306 29.1184 14.8562 40.8511C15.3272 41.345 15.8244 41.8132 16.3456 42.2538L16.35 42.2575C16.4061 42.3047 16.4626 42.3519 16.5194 42.3989L16.54 42.4154C16.5914 42.4581 16.6432 42.4999 16.695 42.5418L16.727 42.5675C16.7751 42.6061 16.8236 42.6447 16.8739 42.6825L16.9147 42.7145L17.0525 42.8214L17.101 42.8581C17.1448 42.8917 17.1888 42.9249 17.2329 42.9577L17.2876 42.9985L17.4144 43.0922L17.4753 43.1359C17.5161 43.1656 17.5565 43.195 17.5977 43.2241L17.6634 43.2707C17.7031 43.2986 17.7428 43.3266 17.7828 43.3541L17.8527 43.4022L17.9687 43.4816C17.9937 43.4985 18.0187 43.5154 18.0441 43.5319L18.1543 43.6054L18.2344 43.6576C18.2711 43.6811 18.3079 43.705 18.3446 43.7281L18.4291 43.7821C18.4658 43.8045 18.4996 43.827 18.5353 43.849L18.6234 43.9037L18.727 43.9677L18.8193 44.0231C18.8527 44.0433 18.8861 44.0636 18.9199 44.0834L19.0166 44.1403L19.1139 44.1973L19.2149 44.255L19.309 44.3082C19.3457 44.3281 19.3795 44.3479 19.4152 44.3674L19.5055 44.417L19.6158 44.4772L19.7025 44.5235L19.8186 44.5845C19.8303 44.5911 19.8424 44.5974 19.8553 44.6036C19.8682 44.6099 19.8744 44.6132 19.8836 44.6183C19.9806 44.6683 20.0779 44.7182 20.1775 44.7653C20.2975 44.8248 20.4182 44.8831 20.5394 44.9402C20.9249 45.1214 21.3168 45.2895 21.715 45.4446L21.9535 47.628L26.0528 85.1869L27.8678 86.885L29.2734 84.8349L31.088 86.533L32.4936 84.4833L34.3082 86.1818L35.7153 84.1317L37.5302 85.8298L38.9355 83.7798L40.7504 85.4779L42.1557 83.4282L43.9702 85.1263L44.7785 83.9447L45.0206 84.1372C45.3503 84.3986 45.6821 84.6615 46.0162 84.926C46.0463 84.9503 46.0761 84.9734 46.1062 84.9973C46.5644 85.3592 47.0247 85.7207 47.4784 86.076C48.6739 87.0106 49.8264 87.8971 50.8019 88.6242C51.4973 89.1422 52.1024 89.5794 52.5675 89.8921C55.0125 91.5365 56.5993 92.3481 58.7765 94.4455C58.847 94.5131 58.9183 94.5818 58.9903 94.6527L59.0032 94.6656C59.0131 94.6752 59.0226 94.6851 59.0329 94.6946L59.0498 94.7123L59.1134 94.7751L59.1281 94.7902C59.25 94.9118 59.3735 95.037 59.4991 95.1675C59.5849 95.2556 59.6717 95.3463 59.7596 95.4393C59.8022 95.4849 59.8456 95.5304 59.8889 95.5771C59.9801 95.6741 60.0726 95.7733 60.166 95.8762L60.1987 95.9129C60.5062 96.2494 60.8273 96.6109 61.1649 97.0048L60.648 97.2895C60.2904 97.4864 59.9751 97.7518 59.7201 98.0705C59.4651 98.3893 59.2754 98.7551 59.1618 99.1472C59.0482 99.5392 59.0129 99.9498 59.058 100.356C59.1031 100.761 59.2276 101.154 59.4246 101.512L60.6201 103.679L59.8118 104.124C59.3451 104.381 58.9335 104.728 58.6007 105.144C58.2679 105.56 58.0202 106.037 57.8719 106.549C57.7236 107.061 57.6776 107.597 57.7364 108.126C57.7952 108.656 57.9577 109.169 58.2147 109.635L59.0013 111.064C59.9421 111.064 60.8765 111.037 61.8045 110.982C73.3255 110.316 84.2379 105.589 92.6049 97.6411C94.9241 95.1973 96.9857 92.5213 98.7572 89.6555L97.7645 87.8567ZM45.2733 83.2232L45.3736 83.0762L45.5037 83.1975L45.2733 83.2232ZM48.4932 82.8712L48.5935 82.7242L48.7235 82.8459L48.4932 82.8712ZM51.713 82.5196L51.8137 82.3727L51.9433 82.4943L51.713 82.5196ZM54.9328 82.168L55.0331 82.0211L55.1632 82.1423L54.9328 82.168Z" fill="#CCCCCC"></path></g><path d="M88.5513 62.628C88.4613 64.6891 88.066 68.5897 87.2739 72.6057C86.5509 76.2748 87.2243 80.9771 87.3474 81.7611C87.3592 81.8346 87.3658 81.875 87.3658 81.875L63.0742 95.2503C63.0495 95.222 63.0257 95.1937 63.0007 95.1658C62.663 94.773 62.3419 94.4104 62.0344 94.0742L62.0017 94.0375C61.9081 93.9346 61.8158 93.8354 61.7247 93.7381C61.6814 93.6914 61.638 93.6458 61.5954 93.6007C61.5076 93.5077 61.4205 93.417 61.3349 93.3284C61.2093 93.1984 61.0858 93.0713 60.9639 92.9511C60.9587 92.946 60.9539 92.9416 60.9492 92.9364L60.8856 92.8732L60.8687 92.856C60.8584 92.8464 60.8489 92.8365 60.8389 92.8269L60.8261 92.8141C60.7526 92.7432 60.6828 92.6745 60.6123 92.6069C58.4362 90.5094 56.8494 89.6975 54.4033 88.053C53.9382 87.7408 53.3331 87.3036 52.6376 86.7855C51.6622 86.0585 50.5097 85.172 49.3142 84.2373C48.8605 83.882 48.4001 83.5205 47.942 83.1586L47.852 83.0874C47.5184 82.8236 47.1859 82.5594 46.8564 82.2982C46.5268 82.037 46.198 81.7747 45.8773 81.519L58.3726 80.1563L56.1547 59.8524L75.3693 57.7535L74.7323 51.9038L76.4935 51.0383L76.4079 50.4222L75.9715 47.2659L74.4652 36.3639C74.4652 36.3639 74.3667 35.1989 74.6463 34.1004L74.6503 34.0853C74.7299 33.763 74.8526 33.453 75.0151 33.1635C75.6801 32.0246 76.5214 31.3927 77.5501 31.2329C77.5726 31.2288 77.595 31.2252 77.6174 31.223C77.6398 31.2208 77.6703 31.216 77.6975 31.213C77.7313 31.2094 77.7647 31.2061 77.7992 31.2031C78.473 31.1484 79.3614 31.493 80.0209 32.2605C80.4794 32.7932 80.8273 33.5291 80.9188 34.4759C81.0727 36.0964 81.403 37.829 81.8395 39.738C82.0231 40.5514 82.23 41.3957 82.4486 42.2771C83.1808 45.2269 86.1016 52.6081 87.3503 55.6601C88.5991 58.712 88.6417 60.5666 88.5513 62.628Z" fill="#FCB89D"></path><g style="mix-blend-mode:multiply"><path d="M76.0773 47.1648L78.9154 73.1479C78.9954 73.8734 78.9154 74.6077 78.6809 75.299C78.4464 75.9902 78.0632 76.6217 77.5582 77.1488L77.1508 77.5305L60.8261 92.8162C60.7526 92.7453 60.6828 92.6766 60.6123 92.609C58.4362 90.5116 56.8494 89.6996 54.4033 88.0552C53.9382 87.7429 53.3331 87.3057 52.6376 86.7877C51.6622 86.0606 50.5097 85.1741 49.3142 84.2394C48.8605 83.8842 48.4001 83.5227 47.942 83.1608L47.852 83.0895C47.5184 82.8257 47.1859 82.5616 46.8564 82.3004C46.5268 82.0391 46.198 81.7768 45.8773 81.5211L58.3726 80.1566L56.7462 65.2658L57.9696 64.1199L63.3703 59.0646L75.9718 47.2655L76.0773 47.1648Z" fill="#E6E6E6"></path></g><path d="M20.8296 18.7128L27.8898 83.3496L29.7043 85.0477L31.1103 82.998L32.9249 84.6961L34.3305 82.6464L36.1451 84.3445L37.5503 82.2944L39.3653 83.9925L40.7705 81.9429L42.5855 83.6409L43.9907 81.5913L45.8053 83.289L47.2106 81.2393L49.0255 82.9374L50.4308 80.8877L52.2453 82.5858L53.6502 80.5361L55.4651 82.2342L56.8704 80.1841L58.685 81.8822L60.0899 79.8325L61.9048 81.5306L63.3101 79.481L65.1246 81.179L66.5303 79.129L68.3448 80.8271L69.7497 78.7774L71.5646 80.4755L72.9695 78.4258L74.7841 80.1239L76.1897 78.0742L78.0043 79.7719L79.4099 77.7222L72.3497 13.0854L20.8296 18.7128Z" fill="url(#paint0_linear_53_163)"></path><g style="mix-blend-mode:multiply"><path d="M20.8296 18.7125L23.7878 45.7934C25.008 46.2178 26.2687 46.5152 27.5499 46.6806C29.0439 46.8731 30.5554 46.8871 32.0527 46.7225C42.4547 45.5865 49.9664 36.2327 48.83 25.8308C48.4471 22.2699 47.0581 18.8918 44.8254 16.0916L20.8296 18.7125Z" fill="#E6E6E6"></path></g><path d="M73.5894 68.9914C73.691 69.9336 73.4149 70.8776 72.8216 71.6165C72.2283 72.3554 71.3662 72.8289 70.4243 72.9332L69.9379 72.9861L70.0808 74.3362L68.3272 74.5199L68.1851 73.1786L65.0655 73.5195L64.8741 71.7667L68.0025 71.425L67.6218 67.8176L67.1575 67.8683C66.2232 67.9544 65.2925 67.6701 64.566 67.0765C63.8394 66.483 63.3752 65.6277 63.2733 64.695C63.1713 63.7624 63.4399 62.8271 64.0211 62.0906C64.6023 61.3541 65.4496 60.8755 66.3804 60.7578L66.8713 60.7042L66.7287 59.3584L68.4819 59.1714L68.6237 60.5127L71.7392 60.1722L71.9306 61.925L68.8078 62.2663L69.1884 65.8737L69.6484 65.8234C70.5908 65.7223 71.5349 65.999 72.2737 66.5929C73.0124 67.1867 73.4856 68.0493 73.5894 68.9914ZM67.0539 62.4559L66.5718 62.5084C66.0978 62.5656 65.6654 62.8075 65.3685 63.1815C65.0716 63.5554 64.9342 64.0314 64.9861 64.5061C65.0379 64.9808 65.2748 65.4159 65.6454 65.717C66.0161 66.018 66.4904 66.1608 66.9657 66.1144L67.4348 66.0633L67.0539 62.4559ZM71.8369 69.1828C71.7849 68.7047 71.5452 68.2668 71.1706 67.9652C70.7959 67.6636 70.3169 67.5231 69.8387 67.5744L69.3743 67.6251L69.7553 71.2325L70.2329 71.1803C70.7102 71.1274 71.147 70.8874 71.4476 70.513C71.7483 70.1386 71.8883 69.6603 71.8369 69.1828Z" fill="#3E6FFF"></path><path d="M49.6298 74.1245L41.0696 75.0595C40.749 75.0945 40.4555 75.2554 40.2536 75.5068C40.0516 75.7582 39.9578 76.0795 39.9928 76.4001C40.0279 76.7207 40.1889 77.0142 40.4403 77.2161C40.6918 77.418 41.0131 77.5119 41.3337 77.4769L49.894 76.5419C50.0527 76.5246 50.2065 76.4761 50.3466 76.3993C50.4866 76.3226 50.6101 76.219 50.7101 76.0944C50.8101 75.9699 50.8846 75.8269 50.9293 75.6736C50.9741 75.5203 50.9882 75.3597 50.9708 75.2009C50.9535 75.0422 50.9051 74.8884 50.8283 74.7483C50.7516 74.6083 50.648 74.4847 50.5234 74.3848C50.3989 74.2848 50.2558 74.2104 50.1025 74.1657C49.9492 74.121 49.7886 74.107 49.6298 74.1245Z" fill="#CCCCCC"></path><path d="M49.0291 68.6244L32.5674 70.4228C32.2468 70.4578 31.9533 70.6187 31.7514 70.8701C31.5494 71.1215 31.4556 71.4428 31.4906 71.7634C31.5257 72.084 31.6867 72.3775 31.9381 72.5794C32.1896 72.7813 32.5109 72.8751 32.8315 72.8402L49.2929 71.04C49.4517 71.0227 49.6054 70.9743 49.7455 70.8975C49.8855 70.8208 50.0091 70.7172 50.109 70.5927C50.209 70.4682 50.2835 70.3253 50.3283 70.172C50.373 70.0187 50.3871 69.8581 50.3697 69.6994C50.3343 69.3791 50.1732 69.0861 49.9218 68.8845C49.6705 68.683 49.3494 68.5894 49.0291 68.6244Z" fill="#CCCCCC"></path><path d="M67.0603 18.8277L52.9315 20.3707C52.6565 20.4008 52.4047 20.5388 52.2314 20.7544C52.0582 20.9701 51.9776 21.2457 52.0075 21.5207C52.0224 21.6569 52.0639 21.7889 52.1298 21.909C52.1957 22.0292 52.2846 22.1352 52.3915 22.221C52.4983 22.3068 52.621 22.3707 52.7526 22.4091C52.8841 22.4475 53.022 22.4596 53.1582 22.4447L67.287 20.9016C67.5621 20.8714 67.814 20.7332 67.9872 20.5174C68.1605 20.3015 68.241 20.0257 68.211 19.7506C68.1806 19.4757 68.0423 19.2241 67.8266 19.0511C67.6108 18.878 67.3352 18.7977 67.0603 18.8277Z" fill="#CCCCCC"></path><path d="M69.3409 39.7063L55.2121 41.2494C54.9369 41.2795 54.685 41.4177 54.5117 41.6336C54.3385 41.8494 54.258 42.1253 54.2881 42.4004C54.3182 42.6755 54.4564 42.9274 54.6721 43.1007C54.8879 43.2739 55.1637 43.3544 55.4388 43.3244L69.5676 41.7814C69.7038 41.7665 69.8358 41.7249 69.9559 41.6591C70.0761 41.5932 70.1821 41.5043 70.2679 41.3974C70.3537 41.2906 70.4177 41.1679 70.456 41.0363C70.4944 40.9048 70.5065 40.7669 70.4916 40.6307C70.4615 40.3555 70.3234 40.1036 70.1077 39.9302C69.8919 39.7569 69.6161 39.6764 69.3409 39.7063Z" fill="#CCCCCC"></path><path d="M67.6009 23.776L53.4721 25.319C53.197 25.3492 52.9451 25.4874 52.7718 25.7033C52.5986 25.9191 52.5181 26.1949 52.5481 26.47C52.5782 26.7451 52.7163 26.997 52.9321 27.1703C53.1479 27.3435 53.4237 27.424 53.6988 27.394L67.8276 25.851C67.9638 25.8361 68.0958 25.7946 68.2159 25.7287C68.3361 25.6628 68.4421 25.5739 68.5279 25.467C68.6137 25.3602 68.6776 25.2375 68.716 25.1059C68.7544 24.9744 68.7665 24.8365 68.7516 24.7003C68.7367 24.5641 68.6952 24.432 68.6293 24.3118C68.5635 24.1916 68.4746 24.0856 68.3677 23.9997C68.2609 23.9139 68.1381 23.8499 68.0066 23.8116C67.875 23.7732 67.7371 23.7611 67.6009 23.776Z" fill="#CCCCCC"></path><path d="M32.5823 58.1357L69.3931 54.1172C70.799 53.9638 71.8142 52.6997 71.6608 51.2938L71.3548 48.4907C71.2013 47.0848 69.9372 46.0695 68.5313 46.223L31.7205 50.2414C30.3146 50.3949 29.2993 51.659 29.4528 53.0649L29.7588 55.868C29.9123 57.2739 31.1764 58.2892 32.5823 58.1357Z" fill="#E6E6E6"></path><path d="M11.5797 28.0047C11.731 29.3997 12.0363 30.7737 12.4901 32.1015C14.0901 36.7766 17.4411 40.5611 21.6904 42.7691C21.9152 42.8864 22.1428 42.9991 22.373 43.1071C23.9974 43.8711 25.7228 44.3987 27.4966 44.674C27.6539 44.6983 27.8111 44.721 27.9691 44.7413C29.463 44.9338 30.9746 44.948 32.4719 44.7835C42.8738 43.6472 50.3859 34.2934 49.2499 23.8914C48.114 13.4894 38.7594 5.97733 28.3574 7.11367C17.9771 8.24634 10.4754 17.563 11.5728 27.9389C11.575 27.9606 11.5775 27.983 11.5797 28.0047Z" fill="#3E6FFF"></path><g style="mix-blend-mode:multiply"><path d="M33.4995 34.7902C33.1777 33.1432 31.826 32.2207 30.218 32.5348C28.5882 32.8533 27.7274 34.2079 28.0312 35.8586C28.3421 37.4487 29.6507 38.419 31.3032 38.0964C32.9293 37.7786 33.8151 36.3792 33.4995 34.7902Z" fill="#CCCCCC"></path><path d="M31.8382 29.2873L29.7635 15.0006C29.7386 14.8293 29.6792 14.6648 29.5888 14.5172C29.4985 14.3696 29.3791 14.2418 29.2379 14.1417C29.0967 14.0416 28.9366 13.9712 28.7674 13.9348C28.5982 13.8984 28.4234 13.8968 28.2535 13.93L25.033 14.5593C24.8629 14.5923 24.7013 14.6595 24.5581 14.7569C24.4148 14.8543 24.2929 14.9798 24.1996 15.1258C24.1063 15.2717 24.0437 15.4351 24.0156 15.6061C23.9874 15.777 23.9943 15.9518 24.0358 16.12L27.4893 30.1379C27.5747 30.4836 27.7898 30.7833 28.09 30.9748C28.3903 31.1663 28.7527 31.2349 29.1022 31.1666L30.7316 30.8484C31.0812 30.78 31.3911 30.5798 31.5971 30.2892C31.8031 29.9986 31.8894 29.6399 31.8382 29.2873Z" fill="#CCCCCC"></path></g><g style="mix-blend-mode:multiply"><path d="M12.4902 32.1013L26.6716 14.4418C26.8797 14.2193 27.161 14.079 27.464 14.0465L30.7257 13.6902C30.8978 13.6714 31.0719 13.6878 31.2375 13.7383C31.403 13.7888 31.5566 13.8724 31.6888 13.9841C31.8211 14.0957 31.9293 14.2331 32.0069 14.3878C32.0845 14.5425 32.1298 14.7114 32.1402 14.8842L33.0087 29.2948C33.0274 29.6011 32.9438 29.9049 32.771 30.1585L32.6344 30.3286L30.9572 32.4169C31.0112 32.4084 31.0674 32.4007 31.1211 32.3948C32.7497 32.2166 34.0194 33.2494 34.2017 34.9177C34.2895 35.6995 34.0988 36.4126 33.691 36.9604L27.4964 44.6757C25.7225 44.4003 23.9971 43.8727 22.3727 43.1087C22.2669 43.0597 22.1616 43.0089 22.0568 42.9563L22.0108 42.9335C17.6106 40.7482 14.1303 36.8921 12.4902 32.1013Z" fill="#CCCCCC"></path></g><path d="M28.6631 35.5221C28.839 37.1324 30.0617 38.2096 31.7356 38.027C32.5097 37.9422 33.1408 37.606 33.5725 37.106C33.6133 37.059 33.653 37.0097 33.6901 36.959C34.0979 36.4112 34.2886 35.6981 34.2008 34.9163C34.0171 33.248 32.7488 32.2152 31.1202 32.3934C30.3487 32.4776 29.7278 32.8009 29.2998 33.291C29.2549 33.3417 29.2127 33.395 29.1726 33.4493C28.7714 33.996 28.5837 34.7135 28.6631 35.5221Z" fill="white"></path><path d="M26.3405 15.5166L28.604 29.7751C28.6599 30.1269 28.849 30.4437 29.132 30.66C29.4151 30.8762 29.7705 30.9753 30.1246 30.9368L31.7746 30.7564C32.1288 30.7178 32.4546 30.5444 32.6844 30.2721C32.9142 29.9998 33.0305 29.6495 33.009 29.2938L32.1405 14.8832C32.1301 14.7104 32.0848 14.5416 32.0072 14.3868C31.9296 14.2321 31.8214 14.0948 31.6891 13.9831C31.5569 13.8715 31.4033 13.7878 31.2377 13.7373C31.0722 13.6868 30.8981 13.6704 30.726 13.6892L27.4643 14.0455C27.2924 14.0644 27.1261 14.118 26.9755 14.2029C26.8249 14.2879 26.6931 14.4025 26.588 14.5399C26.483 14.6773 26.4069 14.8345 26.3643 15.0021C26.3218 15.1698 26.3137 15.3443 26.3405 15.5151V15.5166Z" fill="white"></path><path d="M75.175 88.4631L62.4838 95.4509C62.1262 95.6478 61.8109 95.9132 61.5559 96.2319C61.3009 96.5507 61.1112 96.9165 60.9976 97.3086C60.884 97.7006 60.8487 98.1112 60.8938 98.5169C60.9389 98.9226 61.0635 99.3155 61.2604 99.673L62.5463 102.007L77.9598 93.5207L75.175 88.4631Z" fill="#F2F2F2"></path><path d="M93.3752 85.0334L77.9616 93.5201L75.1753 88.4626L87.8661 81.4744C88.2237 81.2775 88.6165 81.153 89.0222 81.1079C89.4279 81.0628 89.8385 81.0981 90.2306 81.2117C90.6226 81.3253 90.9885 81.515 91.3072 81.77C91.6259 82.025 91.8913 82.3403 92.0882 82.6979L93.3752 85.0334Z" fill="white"></path><path d="M83.8653 104.246C77.1573 108.227 69.5902 110.537 61.8022 110.981L60.0494 107.797C59.7924 107.33 59.6299 106.818 59.5711 106.288C59.5122 105.759 59.5583 105.223 59.7066 104.711C59.8549 104.199 60.1025 103.722 60.4354 103.306C60.7682 102.89 61.1798 102.543 61.6465 102.286L62.4547 101.841L77.8683 93.3542L83.8653 104.246Z" fill="#4A6684"></path><path d="M100.592 87.8179C96.4223 94.5621 90.6837 100.198 83.8654 104.245L77.8688 93.3545L93.282 84.8677L94.0902 84.4228C94.557 84.1658 95.0697 84.0033 95.5992 83.9445C96.1288 83.8857 96.6647 83.9317 97.1764 84.08C97.6882 84.2283 98.1657 84.476 98.5817 84.8088C98.9977 85.1416 99.3441 85.5532 99.6011 86.0199L100.592 87.8179Z" fill="#547593"></path><g style="mix-blend-mode:screen"><path d="M81.8373 39.7366C81.4163 39.7501 80.9951 39.7176 80.5812 39.6396C79.8243 39.5011 79.4268 39.0396 78.8791 38.3578C78.3313 37.6759 78.034 35.6887 77.8772 34.9642C77.7203 34.2397 77.7012 33.6415 78.0851 32.9688C78.469 32.2962 79.9956 32.2554 79.9956 32.2554L80.0198 32.2594C80.4783 32.7921 80.8262 33.5277 80.9166 34.4744C81.0713 36.095 81.4016 37.8283 81.8373 39.7366Z" fill="#666666"></path></g><path d="M77.5487 31.231C77.163 31.2912 76.7368 32.0231 76.3544 32.9147C75.5596 34.7802 75.2395 36.8136 75.4227 38.833L76.448 50.45C75.1787 49.5095 73.9402 46.2984 73.517 42.4217C73.1713 39.257 73.7683 36.1794 74.1926 34.5838C74.4062 33.7633 74.8255 33.011 75.4109 32.3978C75.973 31.8147 76.671 31.3665 77.5487 31.231Z" fill="#FCB89D"></path><g style="mix-blend-mode:multiply"><path d="M74.1926 34.584C74.2866 34.2281 74.4184 33.8832 74.5857 33.5553L74.4149 31.9895C73.8483 32.6699 73.4379 33.4664 73.2128 34.3228C73.1356 34.6119 73.0383 35.0062 72.9376 35.4856C72.5912 37.1319 72.208 39.7742 72.5092 42.5311C72.7223 44.4849 73.1393 46.3373 73.7147 47.888C73.9259 48.469 74.1806 49.0332 74.4766 49.5758C74.5336 49.6776 74.5905 49.7757 74.6486 49.8698C75.0226 50.4833 75.4252 50.9517 75.8444 51.2625L76.5792 51.8074L76.4293 50.4341C75.505 49.7331 74.5993 47.8318 74.0152 45.3516C73.7893 44.3854 73.6228 43.4063 73.5166 42.4198C73.4279 41.586 73.3958 40.7471 73.4204 39.909C73.4769 38.1106 73.736 36.3244 74.1926 34.584Z" fill="#CCCCCC"></path></g><defs><linearGradient id="paint0_linear_53_163" x1="71.8979" y1="12.5704" x2="29.0875" y2="82.6442" gradientUnits="userSpaceOnUse"><stop stop-color="#F2F2F2"></stop><stop offset="0.08" stop-color="#F6F6F6"></stop><stop offset="0.32" stop-color="#FDFDFD"></stop><stop offset="1" stop-color="white"></stop></linearGradient></defs></svg>